<mxfile host="app.diagrams.net" agent="Mozilla/5.0 (Windows NT 10.0; Win64; x64) AppleWebKit/537.36 (KHTML, like Gecko) Chrome/135.0.0.0 Safari/537.36" version="26.2.14">
  <diagram name="페이지-1" id="bLjCIVvGFPc32_VItfVn">
    <mxGraphModel dx="1933" dy="663" grid="1" gridSize="10" guides="1" tooltips="1" connect="1" arrows="1" fold="1" page="1" pageScale="1" pageWidth="827" pageHeight="1169" math="0" shadow="0">
      <root>
        <mxCell id="0" />
        <mxCell id="1" parent="0" />
        <mxCell id="I5mWi6wbTLuAv_tSIeip-145" value="" style="rounded=1;whiteSpace=wrap;html=1;fillColor=#f5f5f5;strokeColor=#666666;fontColor=#333333;" parent="1" vertex="1">
          <mxGeometry x="-540" y="2130" width="1310" height="700" as="geometry" />
        </mxCell>
        <mxCell id="ICi-KlR8TSbM0P-rb9cd-2" value="Memory Map" style="shape=table;startSize=30;container=1;collapsible=0;childLayout=tableLayout;fixedRows=1;rowLines=0;fontStyle=0;strokeColor=#6c8ebf;fontSize=16;fillColor=#dae8fc;strokeWidth=3;" parent="1" vertex="1">
          <mxGeometry x="140" y="340" width="470" height="330" as="geometry" />
        </mxCell>
        <mxCell id="ICi-KlR8TSbM0P-rb9cd-9" value="" style="shape=tableRow;horizontal=0;startSize=0;swimlaneHead=0;swimlaneBody=0;top=0;left=0;bottom=0;right=0;collapsible=0;dropTarget=0;fillColor=none;points=[[0,0.5],[1,0.5]];portConstraint=eastwest;strokeColor=inherit;fontSize=16;align=center;" parent="ICi-KlR8TSbM0P-rb9cd-2" vertex="1">
          <mxGeometry y="30" width="470" height="30" as="geometry" />
        </mxCell>
        <mxCell id="ICi-KlR8TSbM0P-rb9cd-10" value="&amp;nbsp;0x0000_7000 - 0x0000_7FFF&amp;nbsp;" style="shape=partialRectangle;html=1;whiteSpace=wrap;connectable=0;fillColor=none;top=0;left=0;bottom=0;right=0;overflow=hidden;strokeColor=default;fontSize=16;strokeWidth=3;" parent="ICi-KlR8TSbM0P-rb9cd-9" vertex="1">
          <mxGeometry width="235" height="30" as="geometry">
            <mxRectangle width="235" height="30" as="alternateBounds" />
          </mxGeometry>
        </mxCell>
        <mxCell id="ICi-KlR8TSbM0P-rb9cd-11" value="DHT11" style="shape=partialRectangle;html=1;whiteSpace=wrap;connectable=0;fillColor=none;top=0;left=0;bottom=0;right=0;align=center;spacingLeft=6;overflow=hidden;strokeColor=default;fontSize=16;strokeWidth=3;" parent="ICi-KlR8TSbM0P-rb9cd-9" vertex="1">
          <mxGeometry x="235" width="235" height="30" as="geometry">
            <mxRectangle width="235" height="30" as="alternateBounds" />
          </mxGeometry>
        </mxCell>
        <mxCell id="ICi-KlR8TSbM0P-rb9cd-71" value="" style="shape=tableRow;horizontal=0;startSize=0;swimlaneHead=0;swimlaneBody=0;top=0;left=0;bottom=0;right=0;collapsible=0;dropTarget=0;fillColor=none;points=[[0,0.5],[1,0.5]];portConstraint=eastwest;strokeColor=inherit;fontSize=16;" parent="ICi-KlR8TSbM0P-rb9cd-2" vertex="1">
          <mxGeometry y="60" width="470" height="30" as="geometry" />
        </mxCell>
        <mxCell id="ICi-KlR8TSbM0P-rb9cd-72" value="0x1000_6000 - 0x1000_6FFF" style="shape=partialRectangle;html=1;whiteSpace=wrap;connectable=0;fillColor=none;top=0;left=0;bottom=0;right=0;overflow=hidden;pointerEvents=1;strokeColor=default;fontSize=16;strokeWidth=3;" parent="ICi-KlR8TSbM0P-rb9cd-71" vertex="1">
          <mxGeometry width="235" height="30" as="geometry">
            <mxRectangle width="235" height="30" as="alternateBounds" />
          </mxGeometry>
        </mxCell>
        <mxCell id="ICi-KlR8TSbM0P-rb9cd-73" value="HC_SR04" style="shape=partialRectangle;html=1;whiteSpace=wrap;connectable=0;fillColor=none;top=0;left=0;bottom=0;right=0;align=center;spacingLeft=6;overflow=hidden;strokeColor=default;fontSize=16;strokeWidth=3;" parent="ICi-KlR8TSbM0P-rb9cd-71" vertex="1">
          <mxGeometry x="235" width="235" height="30" as="geometry">
            <mxRectangle width="235" height="30" as="alternateBounds" />
          </mxGeometry>
        </mxCell>
        <mxCell id="ICi-KlR8TSbM0P-rb9cd-74" value="" style="shape=tableRow;horizontal=0;startSize=0;swimlaneHead=0;swimlaneBody=0;top=0;left=0;bottom=0;right=0;collapsible=0;dropTarget=0;fillColor=none;points=[[0,0.5],[1,0.5]];portConstraint=eastwest;strokeColor=inherit;fontSize=16;" parent="ICi-KlR8TSbM0P-rb9cd-2" vertex="1">
          <mxGeometry y="90" width="470" height="30" as="geometry" />
        </mxCell>
        <mxCell id="ICi-KlR8TSbM0P-rb9cd-75" value="0x1000_5000 - 0x1000_5FFF" style="shape=partialRectangle;html=1;whiteSpace=wrap;connectable=0;fillColor=none;top=0;left=0;bottom=0;right=0;overflow=hidden;pointerEvents=1;strokeColor=default;fontSize=16;strokeWidth=3;" parent="ICi-KlR8TSbM0P-rb9cd-74" vertex="1">
          <mxGeometry width="235" height="30" as="geometry">
            <mxRectangle width="235" height="30" as="alternateBounds" />
          </mxGeometry>
        </mxCell>
        <mxCell id="ICi-KlR8TSbM0P-rb9cd-76" value="UART" style="shape=partialRectangle;html=1;whiteSpace=wrap;connectable=0;fillColor=none;top=0;left=0;bottom=0;right=0;align=center;spacingLeft=6;overflow=hidden;strokeColor=default;fontSize=16;strokeWidth=3;" parent="ICi-KlR8TSbM0P-rb9cd-74" vertex="1">
          <mxGeometry x="235" width="235" height="30" as="geometry">
            <mxRectangle width="235" height="30" as="alternateBounds" />
          </mxGeometry>
        </mxCell>
        <mxCell id="ICi-KlR8TSbM0P-rb9cd-77" value="" style="shape=tableRow;horizontal=0;startSize=0;swimlaneHead=0;swimlaneBody=0;top=0;left=0;bottom=0;right=0;collapsible=0;dropTarget=0;fillColor=none;points=[[0,0.5],[1,0.5]];portConstraint=eastwest;strokeColor=inherit;fontSize=16;" parent="ICi-KlR8TSbM0P-rb9cd-2" vertex="1">
          <mxGeometry y="120" width="470" height="30" as="geometry" />
        </mxCell>
        <mxCell id="ICi-KlR8TSbM0P-rb9cd-78" value="0x1000_4000 - 0x1000_4FFF" style="shape=partialRectangle;html=1;whiteSpace=wrap;connectable=0;fillColor=none;top=0;left=0;bottom=0;right=0;overflow=hidden;pointerEvents=1;strokeColor=default;fontSize=16;strokeWidth=3;" parent="ICi-KlR8TSbM0P-rb9cd-77" vertex="1">
          <mxGeometry width="235" height="30" as="geometry">
            <mxRectangle width="235" height="30" as="alternateBounds" />
          </mxGeometry>
        </mxCell>
        <mxCell id="ICi-KlR8TSbM0P-rb9cd-79" value="FND" style="shape=partialRectangle;html=1;whiteSpace=wrap;connectable=0;fillColor=none;top=0;left=0;bottom=0;right=0;align=center;spacingLeft=6;overflow=hidden;strokeColor=default;fontSize=16;strokeWidth=3;" parent="ICi-KlR8TSbM0P-rb9cd-77" vertex="1">
          <mxGeometry x="235" width="235" height="30" as="geometry">
            <mxRectangle width="235" height="30" as="alternateBounds" />
          </mxGeometry>
        </mxCell>
        <mxCell id="ICi-KlR8TSbM0P-rb9cd-83" value="" style="shape=tableRow;horizontal=0;startSize=0;swimlaneHead=0;swimlaneBody=0;top=0;left=0;bottom=0;right=0;collapsible=0;dropTarget=0;fillColor=none;points=[[0,0.5],[1,0.5]];portConstraint=eastwest;strokeColor=inherit;fontSize=16;" parent="ICi-KlR8TSbM0P-rb9cd-2" vertex="1">
          <mxGeometry y="150" width="470" height="30" as="geometry" />
        </mxCell>
        <mxCell id="ICi-KlR8TSbM0P-rb9cd-84" value="0x1000_3000 - 0x1000_3FFF" style="shape=partialRectangle;html=1;whiteSpace=wrap;connectable=0;fillColor=none;top=0;left=0;bottom=0;right=0;overflow=hidden;pointerEvents=1;strokeColor=default;fontSize=16;strokeWidth=3;" parent="ICi-KlR8TSbM0P-rb9cd-83" vertex="1">
          <mxGeometry width="235" height="30" as="geometry">
            <mxRectangle width="235" height="30" as="alternateBounds" />
          </mxGeometry>
        </mxCell>
        <mxCell id="ICi-KlR8TSbM0P-rb9cd-85" value="TIMER" style="shape=partialRectangle;html=1;whiteSpace=wrap;connectable=0;fillColor=none;top=0;left=0;bottom=0;right=0;align=center;spacingLeft=6;overflow=hidden;strokeColor=default;fontSize=16;strokeWidth=3;" parent="ICi-KlR8TSbM0P-rb9cd-83" vertex="1">
          <mxGeometry x="235" width="235" height="30" as="geometry">
            <mxRectangle width="235" height="30" as="alternateBounds" />
          </mxGeometry>
        </mxCell>
        <mxCell id="ICi-KlR8TSbM0P-rb9cd-86" value="" style="shape=tableRow;horizontal=0;startSize=0;swimlaneHead=0;swimlaneBody=0;top=0;left=0;bottom=0;right=0;collapsible=0;dropTarget=0;fillColor=none;points=[[0,0.5],[1,0.5]];portConstraint=eastwest;strokeColor=inherit;fontSize=16;" parent="ICi-KlR8TSbM0P-rb9cd-2" vertex="1">
          <mxGeometry y="180" width="470" height="30" as="geometry" />
        </mxCell>
        <mxCell id="ICi-KlR8TSbM0P-rb9cd-87" value="0x1000_2000 - 0x1000_2FFF" style="shape=partialRectangle;html=1;whiteSpace=wrap;connectable=0;fillColor=none;top=0;left=0;bottom=0;right=0;overflow=hidden;pointerEvents=1;strokeColor=default;fontSize=16;strokeWidth=3;" parent="ICi-KlR8TSbM0P-rb9cd-86" vertex="1">
          <mxGeometry width="235" height="30" as="geometry">
            <mxRectangle width="235" height="30" as="alternateBounds" />
          </mxGeometry>
        </mxCell>
        <mxCell id="ICi-KlR8TSbM0P-rb9cd-88" value="GPIOB" style="shape=partialRectangle;html=1;whiteSpace=wrap;connectable=0;fillColor=none;top=0;left=0;bottom=0;right=0;align=center;spacingLeft=6;overflow=hidden;strokeColor=default;fontSize=16;strokeWidth=3;" parent="ICi-KlR8TSbM0P-rb9cd-86" vertex="1">
          <mxGeometry x="235" width="235" height="30" as="geometry">
            <mxRectangle width="235" height="30" as="alternateBounds" />
          </mxGeometry>
        </mxCell>
        <mxCell id="ICi-KlR8TSbM0P-rb9cd-89" value="" style="shape=tableRow;horizontal=0;startSize=0;swimlaneHead=0;swimlaneBody=0;top=0;left=0;bottom=0;right=0;collapsible=0;dropTarget=0;fillColor=none;points=[[0,0.5],[1,0.5]];portConstraint=eastwest;strokeColor=inherit;fontSize=16;" parent="ICi-KlR8TSbM0P-rb9cd-2" vertex="1">
          <mxGeometry y="210" width="470" height="30" as="geometry" />
        </mxCell>
        <mxCell id="ICi-KlR8TSbM0P-rb9cd-90" value="0x1000_1000 - 0x1000_1FFF" style="shape=partialRectangle;html=1;whiteSpace=wrap;connectable=0;fillColor=none;top=0;left=0;bottom=0;right=0;overflow=hidden;pointerEvents=1;strokeColor=default;fontSize=16;strokeWidth=3;" parent="ICi-KlR8TSbM0P-rb9cd-89" vertex="1">
          <mxGeometry width="235" height="30" as="geometry">
            <mxRectangle width="235" height="30" as="alternateBounds" />
          </mxGeometry>
        </mxCell>
        <mxCell id="ICi-KlR8TSbM0P-rb9cd-91" value="GPIOA" style="shape=partialRectangle;html=1;whiteSpace=wrap;connectable=0;fillColor=none;top=0;left=0;bottom=0;right=0;align=center;spacingLeft=6;overflow=hidden;strokeColor=default;fontSize=16;strokeWidth=3;" parent="ICi-KlR8TSbM0P-rb9cd-89" vertex="1">
          <mxGeometry x="235" width="235" height="30" as="geometry">
            <mxRectangle width="235" height="30" as="alternateBounds" />
          </mxGeometry>
        </mxCell>
        <mxCell id="ICi-KlR8TSbM0P-rb9cd-92" value="" style="shape=tableRow;horizontal=0;startSize=0;swimlaneHead=0;swimlaneBody=0;top=0;left=0;bottom=0;right=0;collapsible=0;dropTarget=0;fillColor=none;points=[[0,0.5],[1,0.5]];portConstraint=eastwest;strokeColor=inherit;fontSize=16;" parent="ICi-KlR8TSbM0P-rb9cd-2" vertex="1">
          <mxGeometry y="240" width="470" height="30" as="geometry" />
        </mxCell>
        <mxCell id="ICi-KlR8TSbM0P-rb9cd-93" value="0x1000_0000 - 0x1000_0FFF" style="shape=partialRectangle;html=1;whiteSpace=wrap;connectable=0;fillColor=none;top=0;left=0;bottom=0;right=0;overflow=hidden;pointerEvents=1;strokeColor=default;fontSize=16;strokeWidth=3;" parent="ICi-KlR8TSbM0P-rb9cd-92" vertex="1">
          <mxGeometry width="235" height="30" as="geometry">
            <mxRectangle width="235" height="30" as="alternateBounds" />
          </mxGeometry>
        </mxCell>
        <mxCell id="ICi-KlR8TSbM0P-rb9cd-94" value="RAM" style="shape=partialRectangle;html=1;whiteSpace=wrap;connectable=0;fillColor=none;top=0;left=0;bottom=0;right=0;align=center;spacingLeft=6;overflow=hidden;strokeColor=default;fontSize=16;strokeWidth=3;" parent="ICi-KlR8TSbM0P-rb9cd-92" vertex="1">
          <mxGeometry x="235" width="235" height="30" as="geometry">
            <mxRectangle width="235" height="30" as="alternateBounds" />
          </mxGeometry>
        </mxCell>
        <mxCell id="ICi-KlR8TSbM0P-rb9cd-95" value="" style="shape=tableRow;horizontal=0;startSize=0;swimlaneHead=0;swimlaneBody=0;top=0;left=0;bottom=0;right=0;collapsible=0;dropTarget=0;fillColor=none;points=[[0,0.5],[1,0.5]];portConstraint=eastwest;strokeColor=inherit;fontSize=16;" parent="ICi-KlR8TSbM0P-rb9cd-2" vertex="1">
          <mxGeometry y="270" width="470" height="30" as="geometry" />
        </mxCell>
        <mxCell id="ICi-KlR8TSbM0P-rb9cd-96" value="0x0000_1000 - 0x0000_FFFF" style="shape=partialRectangle;html=1;whiteSpace=wrap;connectable=0;fillColor=none;top=0;left=0;bottom=0;right=0;overflow=hidden;pointerEvents=1;strokeColor=default;fontSize=16;strokeWidth=3;" parent="ICi-KlR8TSbM0P-rb9cd-95" vertex="1">
          <mxGeometry width="235" height="30" as="geometry">
            <mxRectangle width="235" height="30" as="alternateBounds" />
          </mxGeometry>
        </mxCell>
        <mxCell id="ICi-KlR8TSbM0P-rb9cd-97" value="RESERVED" style="shape=partialRectangle;html=1;whiteSpace=wrap;connectable=0;fillColor=none;top=0;left=0;bottom=0;right=0;align=center;spacingLeft=6;overflow=hidden;strokeColor=default;fontSize=16;strokeWidth=3;" parent="ICi-KlR8TSbM0P-rb9cd-95" vertex="1">
          <mxGeometry x="235" width="235" height="30" as="geometry">
            <mxRectangle width="235" height="30" as="alternateBounds" />
          </mxGeometry>
        </mxCell>
        <mxCell id="ICi-KlR8TSbM0P-rb9cd-98" value="" style="shape=tableRow;horizontal=0;startSize=0;swimlaneHead=0;swimlaneBody=0;top=0;left=0;bottom=0;right=0;collapsible=0;dropTarget=0;fillColor=none;points=[[0,0.5],[1,0.5]];portConstraint=eastwest;strokeColor=inherit;fontSize=16;" parent="ICi-KlR8TSbM0P-rb9cd-2" vertex="1">
          <mxGeometry y="300" width="470" height="30" as="geometry" />
        </mxCell>
        <mxCell id="ICi-KlR8TSbM0P-rb9cd-99" value="0x0000_0000 - 0x0000_0FFF" style="shape=partialRectangle;html=1;whiteSpace=wrap;connectable=0;fillColor=none;top=0;left=0;bottom=0;right=0;overflow=hidden;pointerEvents=1;strokeColor=default;fontSize=16;strokeWidth=3;" parent="ICi-KlR8TSbM0P-rb9cd-98" vertex="1">
          <mxGeometry width="235" height="30" as="geometry">
            <mxRectangle width="235" height="30" as="alternateBounds" />
          </mxGeometry>
        </mxCell>
        <mxCell id="ICi-KlR8TSbM0P-rb9cd-100" value="ROM" style="shape=partialRectangle;html=1;whiteSpace=wrap;connectable=0;fillColor=none;top=0;left=0;bottom=0;right=0;align=center;spacingLeft=6;overflow=hidden;strokeColor=default;fontSize=16;strokeWidth=3;" parent="ICi-KlR8TSbM0P-rb9cd-98" vertex="1">
          <mxGeometry x="235" width="235" height="30" as="geometry">
            <mxRectangle width="235" height="30" as="alternateBounds" />
          </mxGeometry>
        </mxCell>
        <mxCell id="ICi-KlR8TSbM0P-rb9cd-133" value=" Slave register UART" style="shape=table;startSize=30;container=1;collapsible=0;childLayout=tableLayout;fixedRows=1;rowLines=0;fontStyle=0;strokeColor=#6c8ebf;fontSize=16;fillColor=#dae8fc;strokeWidth=3;" parent="1" vertex="1">
          <mxGeometry x="-690" y="390" width="470" height="180" as="geometry" />
        </mxCell>
        <mxCell id="ICi-KlR8TSbM0P-rb9cd-155" value="" style="shape=tableRow;horizontal=0;startSize=0;swimlaneHead=0;swimlaneBody=0;top=0;left=0;bottom=0;right=0;collapsible=0;dropTarget=0;fillColor=none;points=[[0,0.5],[1,0.5]];portConstraint=eastwest;strokeColor=inherit;fontSize=16;" parent="ICi-KlR8TSbM0P-rb9cd-133" vertex="1">
          <mxGeometry y="30" width="470" height="30" as="geometry" />
        </mxCell>
        <mxCell id="ICi-KlR8TSbM0P-rb9cd-156" value="0x0" style="shape=partialRectangle;html=1;whiteSpace=wrap;connectable=0;fillColor=none;top=0;left=0;bottom=0;right=0;overflow=hidden;pointerEvents=1;strokeColor=default;fontSize=16;strokeWidth=3;" parent="ICi-KlR8TSbM0P-rb9cd-155" vertex="1">
          <mxGeometry width="235" height="30" as="geometry">
            <mxRectangle width="235" height="30" as="alternateBounds" />
          </mxGeometry>
        </mxCell>
        <mxCell id="ICi-KlR8TSbM0P-rb9cd-157" value="FIFO FULL,EMPTY" style="shape=partialRectangle;html=1;whiteSpace=wrap;connectable=0;fillColor=none;top=0;left=0;bottom=0;right=0;align=center;spacingLeft=6;overflow=hidden;strokeColor=default;fontSize=16;strokeWidth=3;" parent="ICi-KlR8TSbM0P-rb9cd-155" vertex="1">
          <mxGeometry x="235" width="235" height="30" as="geometry">
            <mxRectangle width="235" height="30" as="alternateBounds" />
          </mxGeometry>
        </mxCell>
        <mxCell id="ICi-KlR8TSbM0P-rb9cd-158" value="" style="shape=tableRow;horizontal=0;startSize=0;swimlaneHead=0;swimlaneBody=0;top=0;left=0;bottom=0;right=0;collapsible=0;dropTarget=0;fillColor=none;points=[[0,0.5],[1,0.5]];portConstraint=eastwest;strokeColor=inherit;fontSize=16;" parent="ICi-KlR8TSbM0P-rb9cd-133" vertex="1">
          <mxGeometry y="60" width="470" height="30" as="geometry" />
        </mxCell>
        <mxCell id="ICi-KlR8TSbM0P-rb9cd-159" value="0x4" style="shape=partialRectangle;html=1;whiteSpace=wrap;connectable=0;fillColor=none;top=0;left=0;bottom=0;right=0;overflow=hidden;pointerEvents=1;strokeColor=default;fontSize=16;strokeWidth=3;" parent="ICi-KlR8TSbM0P-rb9cd-158" vertex="1">
          <mxGeometry width="235" height="30" as="geometry">
            <mxRectangle width="235" height="30" as="alternateBounds" />
          </mxGeometry>
        </mxCell>
        <mxCell id="ICi-KlR8TSbM0P-rb9cd-160" value="FIFO_TX_WDATA" style="shape=partialRectangle;html=1;whiteSpace=wrap;connectable=0;fillColor=none;top=0;left=0;bottom=0;right=0;align=center;spacingLeft=6;overflow=hidden;strokeColor=default;fontSize=16;strokeWidth=3;" parent="ICi-KlR8TSbM0P-rb9cd-158" vertex="1">
          <mxGeometry x="235" width="235" height="30" as="geometry">
            <mxRectangle width="235" height="30" as="alternateBounds" />
          </mxGeometry>
        </mxCell>
        <mxCell id="ICi-KlR8TSbM0P-rb9cd-161" value="" style="shape=tableRow;horizontal=0;startSize=0;swimlaneHead=0;swimlaneBody=0;top=0;left=0;bottom=0;right=0;collapsible=0;dropTarget=0;fillColor=none;points=[[0,0.5],[1,0.5]];portConstraint=eastwest;strokeColor=inherit;fontSize=16;" parent="ICi-KlR8TSbM0P-rb9cd-133" vertex="1">
          <mxGeometry y="90" width="470" height="30" as="geometry" />
        </mxCell>
        <mxCell id="ICi-KlR8TSbM0P-rb9cd-162" value="0x8" style="shape=partialRectangle;html=1;whiteSpace=wrap;connectable=0;fillColor=none;top=0;left=0;bottom=0;right=0;overflow=hidden;pointerEvents=1;strokeColor=default;fontSize=16;strokeWidth=3;" parent="ICi-KlR8TSbM0P-rb9cd-161" vertex="1">
          <mxGeometry width="235" height="30" as="geometry">
            <mxRectangle width="235" height="30" as="alternateBounds" />
          </mxGeometry>
        </mxCell>
        <mxCell id="ICi-KlR8TSbM0P-rb9cd-163" value="FIFO_TX_RDATA" style="shape=partialRectangle;html=1;whiteSpace=wrap;connectable=0;fillColor=none;top=0;left=0;bottom=0;right=0;align=center;spacingLeft=6;overflow=hidden;strokeColor=default;fontSize=16;strokeWidth=3;" parent="ICi-KlR8TSbM0P-rb9cd-161" vertex="1">
          <mxGeometry x="235" width="235" height="30" as="geometry">
            <mxRectangle width="235" height="30" as="alternateBounds" />
          </mxGeometry>
        </mxCell>
        <mxCell id="I5mWi6wbTLuAv_tSIeip-175" value="" style="shape=tableRow;horizontal=0;startSize=0;swimlaneHead=0;swimlaneBody=0;top=0;left=0;bottom=0;right=0;collapsible=0;dropTarget=0;fillColor=none;points=[[0,0.5],[1,0.5]];portConstraint=eastwest;strokeColor=inherit;fontSize=16;" parent="ICi-KlR8TSbM0P-rb9cd-133" vertex="1">
          <mxGeometry y="120" width="470" height="30" as="geometry" />
        </mxCell>
        <mxCell id="I5mWi6wbTLuAv_tSIeip-176" value="0xC" style="shape=partialRectangle;html=1;whiteSpace=wrap;connectable=0;fillColor=none;top=0;left=0;bottom=0;right=0;overflow=hidden;pointerEvents=1;strokeColor=default;fontSize=16;strokeWidth=3;" parent="I5mWi6wbTLuAv_tSIeip-175" vertex="1">
          <mxGeometry width="235" height="30" as="geometry">
            <mxRectangle width="235" height="30" as="alternateBounds" />
          </mxGeometry>
        </mxCell>
        <mxCell id="I5mWi6wbTLuAv_tSIeip-177" value="FIFO_RX_RDATA" style="shape=partialRectangle;html=1;whiteSpace=wrap;connectable=0;fillColor=none;top=0;left=0;bottom=0;right=0;align=center;spacingLeft=6;overflow=hidden;strokeColor=default;fontSize=16;strokeWidth=3;" parent="I5mWi6wbTLuAv_tSIeip-175" vertex="1">
          <mxGeometry x="235" width="235" height="30" as="geometry">
            <mxRectangle width="235" height="30" as="alternateBounds" />
          </mxGeometry>
        </mxCell>
        <mxCell id="I5mWi6wbTLuAv_tSIeip-178" value="" style="shape=tableRow;horizontal=0;startSize=0;swimlaneHead=0;swimlaneBody=0;top=0;left=0;bottom=0;right=0;collapsible=0;dropTarget=0;fillColor=none;points=[[0,0.5],[1,0.5]];portConstraint=eastwest;strokeColor=inherit;fontSize=16;" parent="ICi-KlR8TSbM0P-rb9cd-133" vertex="1">
          <mxGeometry y="150" width="470" height="30" as="geometry" />
        </mxCell>
        <mxCell id="I5mWi6wbTLuAv_tSIeip-179" value="0x10" style="shape=partialRectangle;html=1;whiteSpace=wrap;connectable=0;fillColor=none;top=0;left=0;bottom=0;right=0;overflow=hidden;pointerEvents=1;strokeColor=default;fontSize=16;strokeWidth=3;" parent="I5mWi6wbTLuAv_tSIeip-178" vertex="1">
          <mxGeometry width="235" height="30" as="geometry">
            <mxRectangle width="235" height="30" as="alternateBounds" />
          </mxGeometry>
        </mxCell>
        <mxCell id="I5mWi6wbTLuAv_tSIeip-180" value="UART TX_START" style="shape=partialRectangle;html=1;whiteSpace=wrap;connectable=0;fillColor=none;top=0;left=0;bottom=0;right=0;align=center;spacingLeft=6;overflow=hidden;strokeColor=default;fontSize=16;strokeWidth=3;" parent="I5mWi6wbTLuAv_tSIeip-178" vertex="1">
          <mxGeometry x="235" width="235" height="30" as="geometry">
            <mxRectangle width="235" height="30" as="alternateBounds" />
          </mxGeometry>
        </mxCell>
        <mxCell id="ICi-KlR8TSbM0P-rb9cd-164" value=" Slave register DHT11" style="shape=table;startSize=30;container=1;collapsible=0;childLayout=tableLayout;fixedRows=1;rowLines=0;fontStyle=0;strokeColor=#6c8ebf;fontSize=16;fillColor=#dae8fc;strokeWidth=3;" parent="1" vertex="1">
          <mxGeometry x="-690" y="120" width="470" height="120" as="geometry" />
        </mxCell>
        <mxCell id="ICi-KlR8TSbM0P-rb9cd-165" value="" style="shape=tableRow;horizontal=0;startSize=0;swimlaneHead=0;swimlaneBody=0;top=0;left=0;bottom=0;right=0;collapsible=0;dropTarget=0;fillColor=none;points=[[0,0.5],[1,0.5]];portConstraint=eastwest;strokeColor=inherit;fontSize=16;" parent="ICi-KlR8TSbM0P-rb9cd-164" vertex="1">
          <mxGeometry y="30" width="470" height="30" as="geometry" />
        </mxCell>
        <mxCell id="ICi-KlR8TSbM0P-rb9cd-166" value="0x0" style="shape=partialRectangle;html=1;whiteSpace=wrap;connectable=0;fillColor=none;top=0;left=0;bottom=0;right=0;overflow=hidden;pointerEvents=1;strokeColor=default;fontSize=16;strokeWidth=3;" parent="ICi-KlR8TSbM0P-rb9cd-165" vertex="1">
          <mxGeometry width="235" height="30" as="geometry">
            <mxRectangle width="235" height="30" as="alternateBounds" />
          </mxGeometry>
        </mxCell>
        <mxCell id="ICi-KlR8TSbM0P-rb9cd-167" value="START" style="shape=partialRectangle;html=1;whiteSpace=wrap;connectable=0;fillColor=none;top=0;left=0;bottom=0;right=0;align=center;spacingLeft=6;overflow=hidden;strokeColor=default;fontSize=16;strokeWidth=3;" parent="ICi-KlR8TSbM0P-rb9cd-165" vertex="1">
          <mxGeometry x="235" width="235" height="30" as="geometry">
            <mxRectangle width="235" height="30" as="alternateBounds" />
          </mxGeometry>
        </mxCell>
        <mxCell id="ICi-KlR8TSbM0P-rb9cd-168" value="" style="shape=tableRow;horizontal=0;startSize=0;swimlaneHead=0;swimlaneBody=0;top=0;left=0;bottom=0;right=0;collapsible=0;dropTarget=0;fillColor=none;points=[[0,0.5],[1,0.5]];portConstraint=eastwest;strokeColor=inherit;fontSize=16;" parent="ICi-KlR8TSbM0P-rb9cd-164" vertex="1">
          <mxGeometry y="60" width="470" height="30" as="geometry" />
        </mxCell>
        <mxCell id="ICi-KlR8TSbM0P-rb9cd-169" value="0x4" style="shape=partialRectangle;html=1;whiteSpace=wrap;connectable=0;fillColor=none;top=0;left=0;bottom=0;right=0;overflow=hidden;pointerEvents=1;strokeColor=default;fontSize=16;strokeWidth=3;" parent="ICi-KlR8TSbM0P-rb9cd-168" vertex="1">
          <mxGeometry width="235" height="30" as="geometry">
            <mxRectangle width="235" height="30" as="alternateBounds" />
          </mxGeometry>
        </mxCell>
        <mxCell id="ICi-KlR8TSbM0P-rb9cd-170" value="ODATA" style="shape=partialRectangle;html=1;whiteSpace=wrap;connectable=0;fillColor=none;top=0;left=0;bottom=0;right=0;align=center;spacingLeft=6;overflow=hidden;strokeColor=default;fontSize=16;strokeWidth=3;" parent="ICi-KlR8TSbM0P-rb9cd-168" vertex="1">
          <mxGeometry x="235" width="235" height="30" as="geometry">
            <mxRectangle width="235" height="30" as="alternateBounds" />
          </mxGeometry>
        </mxCell>
        <mxCell id="ICi-KlR8TSbM0P-rb9cd-171" value="" style="shape=tableRow;horizontal=0;startSize=0;swimlaneHead=0;swimlaneBody=0;top=0;left=0;bottom=0;right=0;collapsible=0;dropTarget=0;fillColor=none;points=[[0,0.5],[1,0.5]];portConstraint=eastwest;strokeColor=inherit;fontSize=16;" parent="ICi-KlR8TSbM0P-rb9cd-164" vertex="1">
          <mxGeometry y="90" width="470" height="30" as="geometry" />
        </mxCell>
        <mxCell id="ICi-KlR8TSbM0P-rb9cd-172" value="0x8" style="shape=partialRectangle;html=1;whiteSpace=wrap;connectable=0;fillColor=none;top=0;left=0;bottom=0;right=0;overflow=hidden;pointerEvents=1;strokeColor=default;fontSize=16;strokeWidth=3;" parent="ICi-KlR8TSbM0P-rb9cd-171" vertex="1">
          <mxGeometry width="235" height="30" as="geometry">
            <mxRectangle width="235" height="30" as="alternateBounds" />
          </mxGeometry>
        </mxCell>
        <mxCell id="ICi-KlR8TSbM0P-rb9cd-173" value="CHEKSUM" style="shape=partialRectangle;html=1;whiteSpace=wrap;connectable=0;fillColor=none;top=0;left=0;bottom=0;right=0;align=center;spacingLeft=6;overflow=hidden;strokeColor=default;fontSize=16;strokeWidth=3;" parent="ICi-KlR8TSbM0P-rb9cd-171" vertex="1">
          <mxGeometry x="235" width="235" height="30" as="geometry">
            <mxRectangle width="235" height="30" as="alternateBounds" />
          </mxGeometry>
        </mxCell>
        <mxCell id="I5mWi6wbTLuAv_tSIeip-11" value="" style="rounded=1;whiteSpace=wrap;html=1;fillColor=#d5e8d4;strokeColor=#82b366;strokeWidth=3;" parent="1" vertex="1">
          <mxGeometry x="605" y="1180" width="180" height="320" as="geometry" />
        </mxCell>
        <mxCell id="I5mWi6wbTLuAv_tSIeip-12" value="&lt;b&gt;APB_SLAVE0&lt;/b&gt;" style="text;html=1;align=center;verticalAlign=middle;resizable=0;points=[];autosize=1;strokeColor=none;fillColor=none;" parent="1" vertex="1">
          <mxGeometry x="645" y="1190" width="100" height="30" as="geometry" />
        </mxCell>
        <mxCell id="I5mWi6wbTLuAv_tSIeip-13" value="PADDR" style="text;html=1;align=center;verticalAlign=middle;resizable=0;points=[];autosize=1;strokeColor=none;fillColor=none;" parent="1" vertex="1">
          <mxGeometry x="600" y="1250" width="60" height="30" as="geometry" />
        </mxCell>
        <mxCell id="I5mWi6wbTLuAv_tSIeip-14" value="PWRITE" style="text;html=1;align=center;verticalAlign=middle;resizable=0;points=[];autosize=1;strokeColor=none;fillColor=none;" parent="1" vertex="1">
          <mxGeometry x="600" y="1280" width="70" height="30" as="geometry" />
        </mxCell>
        <mxCell id="I5mWi6wbTLuAv_tSIeip-15" value="PSEL" style="text;html=1;align=center;verticalAlign=middle;resizable=0;points=[];autosize=1;strokeColor=none;fillColor=none;" parent="1" vertex="1">
          <mxGeometry x="605" y="1310" width="50" height="30" as="geometry" />
        </mxCell>
        <mxCell id="I5mWi6wbTLuAv_tSIeip-16" value="PREADY" style="text;html=1;align=center;verticalAlign=middle;resizable=0;points=[];autosize=1;strokeColor=none;fillColor=none;" parent="1" vertex="1">
          <mxGeometry x="600" y="1420" width="70" height="30" as="geometry" />
        </mxCell>
        <mxCell id="I5mWi6wbTLuAv_tSIeip-17" value="PENABLE" style="text;html=1;align=center;verticalAlign=middle;resizable=0;points=[];autosize=1;strokeColor=none;fillColor=none;" parent="1" vertex="1">
          <mxGeometry x="595" y="1340" width="80" height="30" as="geometry" />
        </mxCell>
        <mxCell id="I5mWi6wbTLuAv_tSIeip-18" value="PRDATA" style="text;html=1;align=center;verticalAlign=middle;resizable=0;points=[];autosize=1;strokeColor=none;fillColor=none;" parent="1" vertex="1">
          <mxGeometry x="600" y="1450" width="70" height="30" as="geometry" />
        </mxCell>
        <mxCell id="I5mWi6wbTLuAv_tSIeip-19" value="" style="rounded=1;whiteSpace=wrap;html=1;fillColor=#fff2cc;strokeColor=#d6b656;strokeWidth=3;" parent="1" vertex="1">
          <mxGeometry x="40" y="1360" width="260" height="490" as="geometry" />
        </mxCell>
        <mxCell id="I5mWi6wbTLuAv_tSIeip-20" value="&lt;b&gt;APB_MASTER&lt;/b&gt;" style="text;html=1;align=center;verticalAlign=middle;resizable=0;points=[];autosize=1;strokeColor=none;fillColor=none;" parent="1" vertex="1">
          <mxGeometry x="125" y="1370" width="110" height="30" as="geometry" />
        </mxCell>
        <mxCell id="I5mWi6wbTLuAv_tSIeip-21" value="PADDR" style="text;html=1;align=center;verticalAlign=middle;resizable=0;points=[];autosize=1;strokeColor=none;fillColor=none;" parent="1" vertex="1">
          <mxGeometry x="240" y="1440" width="60" height="30" as="geometry" />
        </mxCell>
        <mxCell id="I5mWi6wbTLuAv_tSIeip-22" value="PWRITE" style="text;html=1;align=center;verticalAlign=middle;resizable=0;points=[];autosize=1;strokeColor=none;fillColor=none;" parent="1" vertex="1">
          <mxGeometry x="230" y="1470" width="70" height="30" as="geometry" />
        </mxCell>
        <mxCell id="I5mWi6wbTLuAv_tSIeip-26" value="PSEL0" style="text;html=1;align=center;verticalAlign=middle;resizable=0;points=[];autosize=1;strokeColor=none;fillColor=none;" parent="1" vertex="1">
          <mxGeometry x="240" y="1497.5" width="60" height="30" as="geometry" />
        </mxCell>
        <mxCell id="I5mWi6wbTLuAv_tSIeip-29" value="PENABLE" style="text;html=1;align=center;verticalAlign=middle;resizable=0;points=[];autosize=1;strokeColor=none;fillColor=none;" parent="1" vertex="1">
          <mxGeometry x="220" y="1809" width="80" height="30" as="geometry" />
        </mxCell>
        <mxCell id="I5mWi6wbTLuAv_tSIeip-33" value="PREADY0" style="text;html=1;align=center;verticalAlign=middle;resizable=0;points=[];autosize=1;strokeColor=none;fillColor=none;" parent="1" vertex="1">
          <mxGeometry x="220" y="1610" width="80" height="30" as="geometry" />
        </mxCell>
        <mxCell id="I5mWi6wbTLuAv_tSIeip-42" style="edgeStyle=orthogonalEdgeStyle;rounded=0;orthogonalLoop=1;jettySize=auto;html=1;entryX=1;entryY=0.75;entryDx=0;entryDy=0;strokeWidth=2;" parent="1" source="I5mWi6wbTLuAv_tSIeip-35" target="I5mWi6wbTLuAv_tSIeip-38" edge="1">
          <mxGeometry relative="1" as="geometry" />
        </mxCell>
        <mxCell id="I5mWi6wbTLuAv_tSIeip-35" value="PRDATAx" style="text;html=1;align=center;verticalAlign=middle;resizable=0;points=[];autosize=1;strokeColor=none;fillColor=none;" parent="1" vertex="1">
          <mxGeometry x="220" y="1770" width="80" height="30" as="geometry" />
        </mxCell>
        <mxCell id="I5mWi6wbTLuAv_tSIeip-82" style="edgeStyle=orthogonalEdgeStyle;rounded=0;orthogonalLoop=1;jettySize=auto;html=1;strokeWidth=2;" parent="1" source="I5mWi6wbTLuAv_tSIeip-37" target="I5mWi6wbTLuAv_tSIeip-26" edge="1">
          <mxGeometry relative="1" as="geometry" />
        </mxCell>
        <mxCell id="I5mWi6wbTLuAv_tSIeip-37" value="DECODER" style="rounded=1;whiteSpace=wrap;html=1;fillColor=#e1d5e7;strokeColor=#9673a6;" parent="1" vertex="1">
          <mxGeometry x="60" y="1510" width="80" height="75" as="geometry" />
        </mxCell>
        <mxCell id="I5mWi6wbTLuAv_tSIeip-97" style="edgeStyle=orthogonalEdgeStyle;rounded=0;orthogonalLoop=1;jettySize=auto;html=1;strokeWidth=2;fillColor=#e1d5e7;strokeColor=#9673a6;" parent="1" source="I5mWi6wbTLuAv_tSIeip-38" target="I5mWi6wbTLuAv_tSIeip-43" edge="1">
          <mxGeometry relative="1" as="geometry">
            <Array as="points">
              <mxPoint x="-20" y="1695" />
              <mxPoint x="-20" y="1645" />
            </Array>
          </mxGeometry>
        </mxCell>
        <mxCell id="I5mWi6wbTLuAv_tSIeip-38" value="MUX" style="rounded=1;whiteSpace=wrap;html=1;fillColor=#e1d5e7;strokeColor=#9673a6;" parent="1" vertex="1">
          <mxGeometry x="60" y="1640" width="90" height="110" as="geometry" />
        </mxCell>
        <mxCell id="I5mWi6wbTLuAv_tSIeip-44" value="&lt;b&gt;CORE&lt;/b&gt;" style="rounded=1;whiteSpace=wrap;html=1;fillColor=#f8cecc;strokeColor=#b85450;" parent="1" vertex="1">
          <mxGeometry x="-320" y="1497.5" width="230" height="170" as="geometry" />
        </mxCell>
        <mxCell id="I5mWi6wbTLuAv_tSIeip-43" value="RDATA" style="text;html=1;align=center;verticalAlign=middle;resizable=0;points=[];autosize=1;strokeColor=none;fillColor=none;" parent="1" vertex="1">
          <mxGeometry x="-150" y="1630" width="60" height="30" as="geometry" />
        </mxCell>
        <mxCell id="I5mWi6wbTLuAv_tSIeip-45" value="" style="rounded=1;whiteSpace=wrap;html=1;fillColor=#d5e8d4;strokeColor=#82b366;strokeWidth=3;" parent="1" vertex="1">
          <mxGeometry x="605" y="1600" width="180" height="320" as="geometry" />
        </mxCell>
        <mxCell id="I5mWi6wbTLuAv_tSIeip-46" value="&lt;b&gt;APB_SLAVEx&lt;/b&gt;" style="text;html=1;align=center;verticalAlign=middle;resizable=0;points=[];autosize=1;strokeColor=none;fillColor=none;" parent="1" vertex="1">
          <mxGeometry x="645" y="1610" width="100" height="30" as="geometry" />
        </mxCell>
        <mxCell id="I5mWi6wbTLuAv_tSIeip-47" value="PADDR" style="text;html=1;align=center;verticalAlign=middle;resizable=0;points=[];autosize=1;strokeColor=none;fillColor=none;" parent="1" vertex="1">
          <mxGeometry x="600" y="1670" width="60" height="30" as="geometry" />
        </mxCell>
        <mxCell id="I5mWi6wbTLuAv_tSIeip-48" value="PWRITE" style="text;html=1;align=center;verticalAlign=middle;resizable=0;points=[];autosize=1;strokeColor=none;fillColor=none;" parent="1" vertex="1">
          <mxGeometry x="600" y="1700" width="70" height="30" as="geometry" />
        </mxCell>
        <mxCell id="I5mWi6wbTLuAv_tSIeip-49" value="PSEL" style="text;html=1;align=center;verticalAlign=middle;resizable=0;points=[];autosize=1;strokeColor=none;fillColor=none;" parent="1" vertex="1">
          <mxGeometry x="605" y="1730" width="50" height="30" as="geometry" />
        </mxCell>
        <mxCell id="I5mWi6wbTLuAv_tSIeip-50" value="PREADY" style="text;html=1;align=center;verticalAlign=middle;resizable=0;points=[];autosize=1;strokeColor=none;fillColor=none;" parent="1" vertex="1">
          <mxGeometry x="600" y="1840" width="70" height="30" as="geometry" />
        </mxCell>
        <mxCell id="I5mWi6wbTLuAv_tSIeip-51" value="PENABLE" style="text;html=1;align=center;verticalAlign=middle;resizable=0;points=[];autosize=1;strokeColor=none;fillColor=none;" parent="1" vertex="1">
          <mxGeometry x="610" y="1760" width="80" height="30" as="geometry" />
        </mxCell>
        <mxCell id="I5mWi6wbTLuAv_tSIeip-52" value="PRDATA" style="text;html=1;align=center;verticalAlign=middle;resizable=0;points=[];autosize=1;strokeColor=none;fillColor=none;" parent="1" vertex="1">
          <mxGeometry x="600" y="1870" width="70" height="30" as="geometry" />
        </mxCell>
        <mxCell id="I5mWi6wbTLuAv_tSIeip-54" value="" style="endArrow=none;dashed=1;html=1;dashPattern=1 3;strokeWidth=5;rounded=0;" parent="1" edge="1">
          <mxGeometry width="50" height="50" relative="1" as="geometry">
            <mxPoint x="694.41" y="1580" as="sourcePoint" />
            <mxPoint x="694.41" y="1510" as="targetPoint" />
          </mxGeometry>
        </mxCell>
        <mxCell id="I5mWi6wbTLuAv_tSIeip-55" style="edgeStyle=orthogonalEdgeStyle;rounded=0;orthogonalLoop=1;jettySize=auto;html=1;entryX=-0.036;entryY=0.49;entryDx=0;entryDy=0;entryPerimeter=0;strokeWidth=2;fillColor=#dae8fc;strokeColor=#6c8ebf;" parent="1" source="I5mWi6wbTLuAv_tSIeip-21" target="I5mWi6wbTLuAv_tSIeip-13" edge="1">
          <mxGeometry relative="1" as="geometry">
            <Array as="points">
              <mxPoint x="430" y="1455" />
              <mxPoint x="430" y="1265" />
            </Array>
          </mxGeometry>
        </mxCell>
        <mxCell id="I5mWi6wbTLuAv_tSIeip-56" style="edgeStyle=orthogonalEdgeStyle;rounded=0;orthogonalLoop=1;jettySize=auto;html=1;entryX=-0.007;entryY=0.667;entryDx=0;entryDy=0;entryPerimeter=0;strokeWidth=2;fillColor=#dae8fc;strokeColor=#6c8ebf;" parent="1" source="I5mWi6wbTLuAv_tSIeip-21" target="I5mWi6wbTLuAv_tSIeip-47" edge="1">
          <mxGeometry relative="1" as="geometry">
            <Array as="points">
              <mxPoint x="430" y="1455" />
              <mxPoint x="430" y="1690" />
            </Array>
          </mxGeometry>
        </mxCell>
        <mxCell id="I5mWi6wbTLuAv_tSIeip-57" style="edgeStyle=orthogonalEdgeStyle;rounded=0;orthogonalLoop=1;jettySize=auto;html=1;entryX=0.011;entryY=0.373;entryDx=0;entryDy=0;entryPerimeter=0;strokeWidth=2;jumpStyle=none;fillColor=#d5e8d4;strokeColor=#82b366;" parent="1" source="I5mWi6wbTLuAv_tSIeip-22" target="I5mWi6wbTLuAv_tSIeip-14" edge="1">
          <mxGeometry relative="1" as="geometry">
            <Array as="points">
              <mxPoint x="460" y="1485" />
              <mxPoint x="460" y="1291" />
            </Array>
          </mxGeometry>
        </mxCell>
        <mxCell id="I5mWi6wbTLuAv_tSIeip-58" style="edgeStyle=orthogonalEdgeStyle;rounded=0;orthogonalLoop=1;jettySize=auto;html=1;entryX=-0.006;entryY=0.667;entryDx=0;entryDy=0;entryPerimeter=0;strokeWidth=2;jumpStyle=none;fillColor=#d5e8d4;strokeColor=#82b366;" parent="1" source="I5mWi6wbTLuAv_tSIeip-22" target="I5mWi6wbTLuAv_tSIeip-48" edge="1">
          <mxGeometry relative="1" as="geometry">
            <Array as="points">
              <mxPoint x="460" y="1485" />
              <mxPoint x="460" y="1720" />
            </Array>
          </mxGeometry>
        </mxCell>
        <mxCell id="I5mWi6wbTLuAv_tSIeip-59" style="edgeStyle=orthogonalEdgeStyle;rounded=0;orthogonalLoop=1;jettySize=auto;html=1;entryX=-0.002;entryY=0.431;entryDx=0;entryDy=0;entryPerimeter=0;strokeWidth=2;fillColor=#f8cecc;strokeColor=#b85450;" parent="1" source="I5mWi6wbTLuAv_tSIeip-26" target="I5mWi6wbTLuAv_tSIeip-15" edge="1">
          <mxGeometry relative="1" as="geometry">
            <Array as="points">
              <mxPoint x="500" y="1515" />
              <mxPoint x="500" y="1323" />
            </Array>
          </mxGeometry>
        </mxCell>
        <mxCell id="I5mWi6wbTLuAv_tSIeip-60" value="" style="endArrow=none;dashed=1;html=1;rounded=0;fontStyle=1;strokeWidth=2;" parent="1" edge="1">
          <mxGeometry width="50" height="50" relative="1" as="geometry">
            <mxPoint x="269.41" y="1557.5" as="sourcePoint" />
            <mxPoint x="269.41" y="1527.5" as="targetPoint" />
          </mxGeometry>
        </mxCell>
        <mxCell id="I5mWi6wbTLuAv_tSIeip-61" value="PSELx" style="text;html=1;align=center;verticalAlign=middle;resizable=0;points=[];autosize=1;strokeColor=none;fillColor=none;" parent="1" vertex="1">
          <mxGeometry x="240" y="1560" width="60" height="30" as="geometry" />
        </mxCell>
        <mxCell id="I5mWi6wbTLuAv_tSIeip-62" style="edgeStyle=orthogonalEdgeStyle;rounded=0;orthogonalLoop=1;jettySize=auto;html=1;entryX=0.009;entryY=0.667;entryDx=0;entryDy=0;entryPerimeter=0;strokeWidth=2;fillColor=#f8cecc;strokeColor=#b85450;" parent="1" source="I5mWi6wbTLuAv_tSIeip-61" target="I5mWi6wbTLuAv_tSIeip-49" edge="1">
          <mxGeometry relative="1" as="geometry">
            <Array as="points">
              <mxPoint x="500" y="1575" />
              <mxPoint x="500" y="1750" />
            </Array>
          </mxGeometry>
        </mxCell>
        <mxCell id="I5mWi6wbTLuAv_tSIeip-63" value="PREADYx" style="text;html=1;align=center;verticalAlign=middle;resizable=0;points=[];autosize=1;strokeColor=none;fillColor=none;" parent="1" vertex="1">
          <mxGeometry x="220" y="1670" width="80" height="30" as="geometry" />
        </mxCell>
        <mxCell id="I5mWi6wbTLuAv_tSIeip-64" value="" style="endArrow=none;dashed=1;html=1;rounded=0;fontStyle=1;strokeWidth=2;" parent="1" edge="1">
          <mxGeometry width="50" height="50" relative="1" as="geometry">
            <mxPoint x="264.41" y="1670" as="sourcePoint" />
            <mxPoint x="264.41" y="1640" as="targetPoint" />
          </mxGeometry>
        </mxCell>
        <mxCell id="I5mWi6wbTLuAv_tSIeip-65" style="edgeStyle=orthogonalEdgeStyle;rounded=0;orthogonalLoop=1;jettySize=auto;html=1;entryX=1.013;entryY=0.412;entryDx=0;entryDy=0;entryPerimeter=0;strokeWidth=2;fillColor=#e1d5e7;strokeColor=#9673a6;" parent="1" source="I5mWi6wbTLuAv_tSIeip-50" target="I5mWi6wbTLuAv_tSIeip-63" edge="1">
          <mxGeometry relative="1" as="geometry">
            <Array as="points">
              <mxPoint x="420" y="1855" />
              <mxPoint x="420" y="1682" />
              <mxPoint x="306" y="1682" />
            </Array>
          </mxGeometry>
        </mxCell>
        <mxCell id="I5mWi6wbTLuAv_tSIeip-66" style="edgeStyle=orthogonalEdgeStyle;rounded=0;orthogonalLoop=1;jettySize=auto;html=1;entryX=1.05;entryY=0.588;entryDx=0;entryDy=0;entryPerimeter=0;strokeWidth=2;jumpStyle=none;fillColor=#e1d5e7;strokeColor=#9673a6;" parent="1" source="I5mWi6wbTLuAv_tSIeip-16" target="I5mWi6wbTLuAv_tSIeip-33" edge="1">
          <mxGeometry relative="1" as="geometry">
            <Array as="points">
              <mxPoint x="540" y="1435" />
              <mxPoint x="540" y="1628" />
              <mxPoint x="309" y="1628" />
            </Array>
          </mxGeometry>
        </mxCell>
        <mxCell id="I5mWi6wbTLuAv_tSIeip-72" value="PRDATA0" style="text;html=1;align=center;verticalAlign=middle;resizable=0;points=[];autosize=1;strokeColor=none;fillColor=none;" parent="1" vertex="1">
          <mxGeometry x="220" y="1710" width="80" height="30" as="geometry" />
        </mxCell>
        <mxCell id="I5mWi6wbTLuAv_tSIeip-73" value="" style="endArrow=none;dashed=1;html=1;rounded=0;fontStyle=1;strokeWidth=2;" parent="1" edge="1">
          <mxGeometry width="50" height="50" relative="1" as="geometry">
            <mxPoint x="259.41" y="1770" as="sourcePoint" />
            <mxPoint x="259.41" y="1740" as="targetPoint" />
          </mxGeometry>
        </mxCell>
        <mxCell id="I5mWi6wbTLuAv_tSIeip-74" style="edgeStyle=orthogonalEdgeStyle;rounded=0;orthogonalLoop=1;jettySize=auto;html=1;entryX=1.054;entryY=0.667;entryDx=0;entryDy=0;entryPerimeter=0;fillColor=#ffe6cc;strokeColor=#d79b00;strokeWidth=2;" parent="1" source="I5mWi6wbTLuAv_tSIeip-18" target="I5mWi6wbTLuAv_tSIeip-72" edge="1">
          <mxGeometry relative="1" as="geometry">
            <Array as="points">
              <mxPoint x="570" y="1465" />
              <mxPoint x="570" y="1800" />
              <mxPoint x="380" y="1800" />
              <mxPoint x="380" y="1730" />
            </Array>
          </mxGeometry>
        </mxCell>
        <mxCell id="I5mWi6wbTLuAv_tSIeip-75" style="edgeStyle=orthogonalEdgeStyle;rounded=0;orthogonalLoop=1;jettySize=auto;html=1;entryX=1.046;entryY=0.333;entryDx=0;entryDy=0;entryPerimeter=0;fillColor=#ffe6cc;strokeColor=#d79b00;strokeWidth=2;" parent="1" source="I5mWi6wbTLuAv_tSIeip-52" target="I5mWi6wbTLuAv_tSIeip-35" edge="1">
          <mxGeometry relative="1" as="geometry">
            <Array as="points">
              <mxPoint x="350" y="1885" />
              <mxPoint x="350" y="1780" />
            </Array>
          </mxGeometry>
        </mxCell>
        <mxCell id="I5mWi6wbTLuAv_tSIeip-77" style="edgeStyle=orthogonalEdgeStyle;rounded=0;orthogonalLoop=1;jettySize=auto;html=1;entryX=1.008;entryY=0.176;entryDx=0;entryDy=0;entryPerimeter=0;strokeWidth=2;" parent="1" source="I5mWi6wbTLuAv_tSIeip-63" target="I5mWi6wbTLuAv_tSIeip-38" edge="1">
          <mxGeometry relative="1" as="geometry" />
        </mxCell>
        <mxCell id="I5mWi6wbTLuAv_tSIeip-95" style="edgeStyle=orthogonalEdgeStyle;rounded=0;orthogonalLoop=1;jettySize=auto;html=1;entryX=0;entryY=0.25;entryDx=0;entryDy=0;strokeWidth=2;fillColor=#f8cecc;strokeColor=#b85450;" parent="1" source="I5mWi6wbTLuAv_tSIeip-79" target="I5mWi6wbTLuAv_tSIeip-37" edge="1">
          <mxGeometry relative="1" as="geometry">
            <Array as="points">
              <mxPoint x="-10" y="1525" />
              <mxPoint x="-10" y="1529" />
            </Array>
          </mxGeometry>
        </mxCell>
        <mxCell id="I5mWi6wbTLuAv_tSIeip-79" value="ADDR" style="text;html=1;align=center;verticalAlign=middle;resizable=0;points=[];autosize=1;strokeColor=none;fillColor=none;" parent="1" vertex="1">
          <mxGeometry x="-155" y="1510" width="60" height="30" as="geometry" />
        </mxCell>
        <mxCell id="I5mWi6wbTLuAv_tSIeip-85" value="READY" style="text;html=1;align=center;verticalAlign=middle;resizable=0;points=[];autosize=1;strokeColor=none;fillColor=none;" parent="1" vertex="1">
          <mxGeometry x="-150" y="1600" width="60" height="30" as="geometry" />
        </mxCell>
        <mxCell id="I5mWi6wbTLuAv_tSIeip-87" value="WRITE" style="text;html=1;align=center;verticalAlign=middle;resizable=0;points=[];autosize=1;strokeColor=none;fillColor=none;" parent="1" vertex="1">
          <mxGeometry x="-155" y="1540" width="60" height="30" as="geometry" />
        </mxCell>
        <mxCell id="I5mWi6wbTLuAv_tSIeip-90" style="edgeStyle=orthogonalEdgeStyle;rounded=0;orthogonalLoop=1;jettySize=auto;html=1;entryX=-0.006;entryY=0.392;entryDx=0;entryDy=0;entryPerimeter=0;strokeWidth=2;fillColor=#f8cecc;strokeColor=#b85450;" parent="1" source="I5mWi6wbTLuAv_tSIeip-79" target="I5mWi6wbTLuAv_tSIeip-21" edge="1">
          <mxGeometry relative="1" as="geometry">
            <Array as="points">
              <mxPoint x="-10" y="1525" />
              <mxPoint x="-10" y="1452" />
            </Array>
          </mxGeometry>
        </mxCell>
        <mxCell id="I5mWi6wbTLuAv_tSIeip-94" style="edgeStyle=orthogonalEdgeStyle;rounded=0;orthogonalLoop=1;jettySize=auto;html=1;entryX=0.012;entryY=0.51;entryDx=0;entryDy=0;entryPerimeter=0;strokeWidth=2;fillColor=#dae8fc;strokeColor=#6c8ebf;" parent="1" source="I5mWi6wbTLuAv_tSIeip-87" target="I5mWi6wbTLuAv_tSIeip-22" edge="1">
          <mxGeometry relative="1" as="geometry">
            <Array as="points">
              <mxPoint x="10" y="1555" />
              <mxPoint x="10" y="1485" />
            </Array>
          </mxGeometry>
        </mxCell>
        <mxCell id="I5mWi6wbTLuAv_tSIeip-96" style="edgeStyle=orthogonalEdgeStyle;rounded=0;orthogonalLoop=1;jettySize=auto;html=1;entryX=1.026;entryY=0.552;entryDx=0;entryDy=0;entryPerimeter=0;strokeWidth=2;fillColor=#e1d5e7;strokeColor=#9673a6;" parent="1" source="I5mWi6wbTLuAv_tSIeip-38" target="I5mWi6wbTLuAv_tSIeip-85" edge="1">
          <mxGeometry relative="1" as="geometry">
            <Array as="points">
              <mxPoint x="-20" y="1695" />
              <mxPoint x="-20" y="1617" />
            </Array>
          </mxGeometry>
        </mxCell>
        <mxCell id="I5mWi6wbTLuAv_tSIeip-98" value="" style="rounded=1;whiteSpace=wrap;html=1;fillColor=#dae8fc;strokeColor=#6c8ebf;" parent="1" vertex="1">
          <mxGeometry x="-460" y="2270" width="710" height="430" as="geometry" />
        </mxCell>
        <mxCell id="I5mWi6wbTLuAv_tSIeip-99" value="" style="rounded=1;whiteSpace=wrap;html=1;fillColor=#f8cecc;strokeColor=#b85450;" parent="1" vertex="1">
          <mxGeometry x="330" y="2330" width="350" height="315" as="geometry" />
        </mxCell>
        <mxCell id="I5mWi6wbTLuAv_tSIeip-100" value="&lt;b&gt;&lt;font style=&quot;font-size: 17px;&quot;&gt;APB_INTERFACE_DHT11&lt;/font&gt;&lt;/b&gt;" style="text;html=1;align=center;verticalAlign=middle;resizable=0;points=[];autosize=1;strokeColor=none;fillColor=none;" parent="1" vertex="1">
          <mxGeometry x="-220" y="2280" width="230" height="30" as="geometry" />
        </mxCell>
        <mxCell id="I5mWi6wbTLuAv_tSIeip-101" value="&lt;b&gt;&lt;font style=&quot;font-size: 14px;&quot;&gt;DHT11 CONTROLLER&lt;/font&gt;&lt;/b&gt;" style="text;html=1;align=center;verticalAlign=middle;resizable=0;points=[];autosize=1;strokeColor=none;fillColor=none;" parent="1" vertex="1">
          <mxGeometry x="420" y="2350" width="170" height="30" as="geometry" />
        </mxCell>
        <mxCell id="I5mWi6wbTLuAv_tSIeip-112" value="&lt;font style=&quot;font-size: 13px;&quot;&gt;START_TRIGGER&lt;/font&gt;" style="text;html=1;align=center;verticalAlign=middle;resizable=0;points=[];autosize=1;strokeColor=none;fillColor=none;fontStyle=1" parent="1" vertex="1">
          <mxGeometry x="330" y="2420" width="130" height="30" as="geometry" />
        </mxCell>
        <mxCell id="I5mWi6wbTLuAv_tSIeip-115" style="edgeStyle=orthogonalEdgeStyle;rounded=0;orthogonalLoop=1;jettySize=auto;html=1;entryX=-0.032;entryY=0.417;entryDx=0;entryDy=0;entryPerimeter=0;strokeWidth=2;fillColor=#dae8fc;strokeColor=#6c8ebf;" parent="1" source="3vbZaFCxg4m8OFzueqiP-2" target="I5mWi6wbTLuAv_tSIeip-112" edge="1">
          <mxGeometry relative="1" as="geometry">
            <Array as="points">
              <mxPoint x="280" y="2515" />
              <mxPoint x="280" y="2433" />
            </Array>
            <mxPoint x="80" y="2515" as="sourcePoint" />
          </mxGeometry>
        </mxCell>
        <mxCell id="I5mWi6wbTLuAv_tSIeip-117" style="edgeStyle=orthogonalEdgeStyle;rounded=0;orthogonalLoop=1;jettySize=auto;html=1;entryX=1;entryY=0.5;entryDx=0;entryDy=0;strokeWidth=2;fillColor=#f8cecc;strokeColor=#b85450;" parent="1" source="I5mWi6wbTLuAv_tSIeip-116" edge="1">
          <mxGeometry relative="1" as="geometry">
            <Array as="points">
              <mxPoint x="280" y="2595" />
              <mxPoint x="280" y="2575" />
            </Array>
            <mxPoint x="80" y="2575" as="targetPoint" />
          </mxGeometry>
        </mxCell>
        <mxCell id="I5mWi6wbTLuAv_tSIeip-116" value="&lt;b&gt;&lt;font style=&quot;font-size: 13px;&quot;&gt;CHECKSUM&lt;/font&gt;&lt;/b&gt;" style="text;html=1;align=center;verticalAlign=middle;resizable=0;points=[];autosize=1;strokeColor=none;fillColor=none;" parent="1" vertex="1">
          <mxGeometry x="330" y="2580" width="100" height="30" as="geometry" />
        </mxCell>
        <mxCell id="I5mWi6wbTLuAv_tSIeip-119" style="edgeStyle=orthogonalEdgeStyle;rounded=0;orthogonalLoop=1;jettySize=auto;html=1;entryX=1;entryY=0.5;entryDx=0;entryDy=0;strokeWidth=2;fillColor=#e1d5e7;strokeColor=#9673a6;" parent="1" source="I5mWi6wbTLuAv_tSIeip-118" edge="1">
          <mxGeometry relative="1" as="geometry">
            <Array as="points">
              <mxPoint x="280" y="2530" />
              <mxPoint x="280" y="2545" />
            </Array>
            <mxPoint x="80" y="2545" as="targetPoint" />
          </mxGeometry>
        </mxCell>
        <mxCell id="I5mWi6wbTLuAv_tSIeip-118" value="&lt;b&gt;&lt;font style=&quot;font-size: 13px;&quot;&gt;DATAOUT&lt;/font&gt;&lt;/b&gt;" style="text;html=1;align=center;verticalAlign=middle;resizable=0;points=[];autosize=1;strokeColor=none;fillColor=none;" parent="1" vertex="1">
          <mxGeometry x="330" y="2515" width="90" height="30" as="geometry" />
        </mxCell>
        <mxCell id="I5mWi6wbTLuAv_tSIeip-120" value="&lt;b&gt;&lt;font style=&quot;font-size: 13px;&quot;&gt;PRDATA&lt;/font&gt;&lt;/b&gt;" style="text;html=1;align=center;verticalAlign=middle;resizable=0;points=[];autosize=1;strokeColor=none;fillColor=none;" parent="1" vertex="1">
          <mxGeometry x="-450" y="2550" width="80" height="30" as="geometry" />
        </mxCell>
        <mxCell id="I5mWi6wbTLuAv_tSIeip-123" value="PWDATA" style="text;html=1;align=center;verticalAlign=middle;resizable=0;points=[];autosize=1;strokeColor=none;fillColor=none;" parent="1" vertex="1">
          <mxGeometry x="230" y="1400" width="70" height="30" as="geometry" />
        </mxCell>
        <mxCell id="I5mWi6wbTLuAv_tSIeip-124" value="PWDATA" style="text;html=1;align=center;verticalAlign=middle;resizable=0;points=[];autosize=1;strokeColor=none;fillColor=none;" parent="1" vertex="1">
          <mxGeometry x="600" y="1220" width="70" height="30" as="geometry" />
        </mxCell>
        <mxCell id="I5mWi6wbTLuAv_tSIeip-125" value="PWDATA" style="text;html=1;align=center;verticalAlign=middle;resizable=0;points=[];autosize=1;strokeColor=none;fillColor=none;" parent="1" vertex="1">
          <mxGeometry x="600" y="1640" width="70" height="30" as="geometry" />
        </mxCell>
        <mxCell id="I5mWi6wbTLuAv_tSIeip-126" style="edgeStyle=orthogonalEdgeStyle;rounded=0;orthogonalLoop=1;jettySize=auto;html=1;entryX=-0.06;entryY=0.472;entryDx=0;entryDy=0;entryPerimeter=0;fillColor=#f5f5f5;strokeColor=#666666;strokeWidth=2;" parent="1" source="I5mWi6wbTLuAv_tSIeip-123" target="I5mWi6wbTLuAv_tSIeip-124" edge="1">
          <mxGeometry relative="1" as="geometry">
            <Array as="points">
              <mxPoint x="360" y="1415" />
              <mxPoint x="360" y="1234" />
            </Array>
          </mxGeometry>
        </mxCell>
        <mxCell id="I5mWi6wbTLuAv_tSIeip-127" style="edgeStyle=orthogonalEdgeStyle;rounded=0;orthogonalLoop=1;jettySize=auto;html=1;entryX=0.048;entryY=0.444;entryDx=0;entryDy=0;entryPerimeter=0;fillColor=#f5f5f5;strokeColor=#666666;strokeWidth=2;" parent="1" source="I5mWi6wbTLuAv_tSIeip-123" target="I5mWi6wbTLuAv_tSIeip-125" edge="1">
          <mxGeometry relative="1" as="geometry">
            <Array as="points">
              <mxPoint x="360" y="1415" />
              <mxPoint x="360" y="1653" />
            </Array>
          </mxGeometry>
        </mxCell>
        <mxCell id="I5mWi6wbTLuAv_tSIeip-142" style="edgeStyle=orthogonalEdgeStyle;rounded=0;orthogonalLoop=1;jettySize=auto;html=1;strokeWidth=2;fillColor=#d80073;strokeColor=#A50040;entryX=-0.008;entryY=0.283;entryDx=0;entryDy=0;entryPerimeter=0;" parent="1" source="I5mWi6wbTLuAv_tSIeip-128" target="3vbZaFCxg4m8OFzueqiP-2" edge="1">
          <mxGeometry relative="1" as="geometry">
            <mxPoint x="-250" y="2515" as="targetPoint" />
            <Array as="points">
              <mxPoint x="-330" y="2518" />
              <mxPoint x="-330" y="2518" />
            </Array>
          </mxGeometry>
        </mxCell>
        <mxCell id="I5mWi6wbTLuAv_tSIeip-128" value="&lt;b&gt;&lt;font style=&quot;font-size: 13px;&quot;&gt;PWDATA&lt;/font&gt;&lt;/b&gt;" style="text;html=1;align=center;verticalAlign=middle;resizable=0;points=[];autosize=1;strokeColor=none;fillColor=none;" parent="1" vertex="1">
          <mxGeometry x="-440" y="2500" width="80" height="30" as="geometry" />
        </mxCell>
        <mxCell id="I5mWi6wbTLuAv_tSIeip-137" style="edgeStyle=orthogonalEdgeStyle;rounded=0;orthogonalLoop=1;jettySize=auto;html=1;entryX=0.5;entryY=0;entryDx=0;entryDy=0;strokeWidth=2;fillColor=#d5e8d4;strokeColor=#82b366;" parent="1" source="I5mWi6wbTLuAv_tSIeip-134" edge="1">
          <mxGeometry relative="1" as="geometry">
            <mxPoint x="-85" y="2470" as="targetPoint" />
          </mxGeometry>
        </mxCell>
        <mxCell id="I5mWi6wbTLuAv_tSIeip-134" value="&lt;b&gt;&lt;font style=&quot;font-size: 13px;&quot;&gt;PADDR&lt;/font&gt;&lt;/b&gt;" style="text;html=1;align=center;verticalAlign=middle;resizable=0;points=[];autosize=1;strokeColor=none;fillColor=none;" parent="1" vertex="1">
          <mxGeometry x="-450" y="2330" width="70" height="30" as="geometry" />
        </mxCell>
        <mxCell id="I5mWi6wbTLuAv_tSIeip-138" value="PENABLE" style="text;html=1;align=center;verticalAlign=middle;resizable=0;points=[];autosize=1;strokeColor=none;fillColor=none;" parent="1" vertex="1">
          <mxGeometry x="150" y="1880" width="80" height="30" as="geometry" />
        </mxCell>
        <mxCell id="I5mWi6wbTLuAv_tSIeip-139" style="edgeStyle=orthogonalEdgeStyle;rounded=0;orthogonalLoop=1;jettySize=auto;html=1;entryX=-0.042;entryY=0.583;entryDx=0;entryDy=0;entryPerimeter=0;fillColor=#60a917;strokeColor=#2D7600;strokeWidth=2;" parent="1" source="I5mWi6wbTLuAv_tSIeip-29" target="I5mWi6wbTLuAv_tSIeip-51" edge="1">
          <mxGeometry relative="1" as="geometry">
            <Array as="points">
              <mxPoint x="520" y="1824" />
              <mxPoint x="520" y="1780" />
              <mxPoint x="597" y="1780" />
              <mxPoint x="597" y="1778" />
            </Array>
          </mxGeometry>
        </mxCell>
        <mxCell id="I5mWi6wbTLuAv_tSIeip-140" style="edgeStyle=orthogonalEdgeStyle;rounded=0;orthogonalLoop=1;jettySize=auto;html=1;entryX=-0.062;entryY=0.417;entryDx=0;entryDy=0;entryPerimeter=0;fillColor=#60a917;strokeColor=#2D7600;strokeWidth=2;" parent="1" source="I5mWi6wbTLuAv_tSIeip-29" target="I5mWi6wbTLuAv_tSIeip-17" edge="1">
          <mxGeometry relative="1" as="geometry">
            <Array as="points">
              <mxPoint x="520" y="1824" />
              <mxPoint x="520" y="1353" />
            </Array>
          </mxGeometry>
        </mxCell>
        <mxCell id="I5mWi6wbTLuAv_tSIeip-143" style="edgeStyle=orthogonalEdgeStyle;rounded=0;orthogonalLoop=1;jettySize=auto;html=1;strokeWidth=2;fillColor=#fff2cc;strokeColor=#d6b656;" parent="1" target="I5mWi6wbTLuAv_tSIeip-120" edge="1">
          <mxGeometry relative="1" as="geometry">
            <mxPoint x="-250" y="2545" as="sourcePoint" />
            <Array as="points">
              <mxPoint x="-250" y="2546" />
              <mxPoint x="-310" y="2546" />
              <mxPoint x="-310" y="2560" />
            </Array>
          </mxGeometry>
        </mxCell>
        <mxCell id="I5mWi6wbTLuAv_tSIeip-146" value="&lt;b&gt;&lt;font style=&quot;font-size: 18px;&quot;&gt;APB_SLAVE_DHT11&lt;/font&gt;&lt;/b&gt;" style="text;html=1;align=center;verticalAlign=middle;resizable=0;points=[];autosize=1;strokeColor=none;fillColor=none;" parent="1" vertex="1">
          <mxGeometry x="25" y="2150" width="200" height="40" as="geometry" />
        </mxCell>
        <mxCell id="I5mWi6wbTLuAv_tSIeip-147" value="&lt;b&gt;&lt;font style=&quot;font-size: 13px;&quot;&gt;DHT_IO&lt;/font&gt;&lt;/b&gt;" style="text;html=1;align=center;verticalAlign=middle;resizable=0;points=[];autosize=1;strokeColor=none;fillColor=none;" parent="1" vertex="1">
          <mxGeometry x="610" y="2450" width="70" height="30" as="geometry" />
        </mxCell>
        <mxCell id="I5mWi6wbTLuAv_tSIeip-155" value="" style="endArrow=classic;startArrow=classic;html=1;rounded=0;" parent="1" edge="1">
          <mxGeometry width="50" height="50" relative="1" as="geometry">
            <mxPoint x="685" y="2464.5" as="sourcePoint" />
            <mxPoint x="765" y="2464.5" as="targetPoint" />
          </mxGeometry>
        </mxCell>
        <mxCell id="I5mWi6wbTLuAv_tSIeip-156" value="&lt;b&gt;&lt;font style=&quot;font-size: 13px;&quot;&gt;DHT_IO&lt;/font&gt;&lt;/b&gt;" style="text;html=1;align=center;verticalAlign=middle;resizable=0;points=[];autosize=1;strokeColor=none;fillColor=none;" parent="1" vertex="1">
          <mxGeometry x="770" y="2450" width="70" height="30" as="geometry" />
        </mxCell>
        <mxCell id="I5mWi6wbTLuAv_tSIeip-162" value=" Slave register TIMER" style="shape=table;startSize=30;container=1;collapsible=0;childLayout=tableLayout;fixedRows=1;rowLines=0;fontStyle=0;strokeColor=#6c8ebf;fontSize=16;fillColor=#dae8fc;strokeWidth=3;" parent="1" vertex="1">
          <mxGeometry x="-690" y="755" width="470" height="150" as="geometry" />
        </mxCell>
        <mxCell id="I5mWi6wbTLuAv_tSIeip-163" value="" style="shape=tableRow;horizontal=0;startSize=0;swimlaneHead=0;swimlaneBody=0;top=0;left=0;bottom=0;right=0;collapsible=0;dropTarget=0;fillColor=none;points=[[0,0.5],[1,0.5]];portConstraint=eastwest;strokeColor=inherit;fontSize=16;" parent="I5mWi6wbTLuAv_tSIeip-162" vertex="1">
          <mxGeometry y="30" width="470" height="30" as="geometry" />
        </mxCell>
        <mxCell id="I5mWi6wbTLuAv_tSIeip-164" value="0x0" style="shape=partialRectangle;html=1;whiteSpace=wrap;connectable=0;fillColor=none;top=0;left=0;bottom=0;right=0;overflow=hidden;pointerEvents=1;strokeColor=default;fontSize=16;strokeWidth=3;" parent="I5mWi6wbTLuAv_tSIeip-163" vertex="1">
          <mxGeometry width="235" height="30" as="geometry">
            <mxRectangle width="235" height="30" as="alternateBounds" />
          </mxGeometry>
        </mxCell>
        <mxCell id="I5mWi6wbTLuAv_tSIeip-165" value="CLEAR, ENABLE" style="shape=partialRectangle;html=1;whiteSpace=wrap;connectable=0;fillColor=none;top=0;left=0;bottom=0;right=0;align=center;spacingLeft=6;overflow=hidden;strokeColor=default;fontSize=16;strokeWidth=3;" parent="I5mWi6wbTLuAv_tSIeip-163" vertex="1">
          <mxGeometry x="235" width="235" height="30" as="geometry">
            <mxRectangle width="235" height="30" as="alternateBounds" />
          </mxGeometry>
        </mxCell>
        <mxCell id="I5mWi6wbTLuAv_tSIeip-166" value="" style="shape=tableRow;horizontal=0;startSize=0;swimlaneHead=0;swimlaneBody=0;top=0;left=0;bottom=0;right=0;collapsible=0;dropTarget=0;fillColor=none;points=[[0,0.5],[1,0.5]];portConstraint=eastwest;strokeColor=inherit;fontSize=16;" parent="I5mWi6wbTLuAv_tSIeip-162" vertex="1">
          <mxGeometry y="60" width="470" height="30" as="geometry" />
        </mxCell>
        <mxCell id="I5mWi6wbTLuAv_tSIeip-167" value="0x4" style="shape=partialRectangle;html=1;whiteSpace=wrap;connectable=0;fillColor=none;top=0;left=0;bottom=0;right=0;overflow=hidden;pointerEvents=1;strokeColor=default;fontSize=16;strokeWidth=3;" parent="I5mWi6wbTLuAv_tSIeip-166" vertex="1">
          <mxGeometry width="235" height="30" as="geometry">
            <mxRectangle width="235" height="30" as="alternateBounds" />
          </mxGeometry>
        </mxCell>
        <mxCell id="I5mWi6wbTLuAv_tSIeip-168" value="COUNT" style="shape=partialRectangle;html=1;whiteSpace=wrap;connectable=0;fillColor=none;top=0;left=0;bottom=0;right=0;align=center;spacingLeft=6;overflow=hidden;strokeColor=default;fontSize=16;strokeWidth=3;" parent="I5mWi6wbTLuAv_tSIeip-166" vertex="1">
          <mxGeometry x="235" width="235" height="30" as="geometry">
            <mxRectangle width="235" height="30" as="alternateBounds" />
          </mxGeometry>
        </mxCell>
        <mxCell id="I5mWi6wbTLuAv_tSIeip-169" value="" style="shape=tableRow;horizontal=0;startSize=0;swimlaneHead=0;swimlaneBody=0;top=0;left=0;bottom=0;right=0;collapsible=0;dropTarget=0;fillColor=none;points=[[0,0.5],[1,0.5]];portConstraint=eastwest;strokeColor=inherit;fontSize=16;" parent="I5mWi6wbTLuAv_tSIeip-162" vertex="1">
          <mxGeometry y="90" width="470" height="30" as="geometry" />
        </mxCell>
        <mxCell id="I5mWi6wbTLuAv_tSIeip-170" value="0x8" style="shape=partialRectangle;html=1;whiteSpace=wrap;connectable=0;fillColor=none;top=0;left=0;bottom=0;right=0;overflow=hidden;pointerEvents=1;strokeColor=default;fontSize=16;strokeWidth=3;" parent="I5mWi6wbTLuAv_tSIeip-169" vertex="1">
          <mxGeometry width="235" height="30" as="geometry">
            <mxRectangle width="235" height="30" as="alternateBounds" />
          </mxGeometry>
        </mxCell>
        <mxCell id="I5mWi6wbTLuAv_tSIeip-171" value="PSC" style="shape=partialRectangle;html=1;whiteSpace=wrap;connectable=0;fillColor=none;top=0;left=0;bottom=0;right=0;align=center;spacingLeft=6;overflow=hidden;strokeColor=default;fontSize=16;strokeWidth=3;" parent="I5mWi6wbTLuAv_tSIeip-169" vertex="1">
          <mxGeometry x="235" width="235" height="30" as="geometry">
            <mxRectangle width="235" height="30" as="alternateBounds" />
          </mxGeometry>
        </mxCell>
        <mxCell id="I5mWi6wbTLuAv_tSIeip-172" value="" style="shape=tableRow;horizontal=0;startSize=0;swimlaneHead=0;swimlaneBody=0;top=0;left=0;bottom=0;right=0;collapsible=0;dropTarget=0;fillColor=none;points=[[0,0.5],[1,0.5]];portConstraint=eastwest;strokeColor=inherit;fontSize=16;" parent="I5mWi6wbTLuAv_tSIeip-162" vertex="1">
          <mxGeometry y="120" width="470" height="30" as="geometry" />
        </mxCell>
        <mxCell id="I5mWi6wbTLuAv_tSIeip-173" value="0xC" style="shape=partialRectangle;html=1;whiteSpace=wrap;connectable=0;fillColor=none;top=0;left=0;bottom=0;right=0;overflow=hidden;pointerEvents=1;strokeColor=default;fontSize=16;strokeWidth=3;" parent="I5mWi6wbTLuAv_tSIeip-172" vertex="1">
          <mxGeometry width="235" height="30" as="geometry">
            <mxRectangle width="235" height="30" as="alternateBounds" />
          </mxGeometry>
        </mxCell>
        <mxCell id="I5mWi6wbTLuAv_tSIeip-174" value="ARR" style="shape=partialRectangle;html=1;whiteSpace=wrap;connectable=0;fillColor=none;top=0;left=0;bottom=0;right=0;align=center;spacingLeft=6;overflow=hidden;strokeColor=default;fontSize=16;strokeWidth=3;" parent="I5mWi6wbTLuAv_tSIeip-172" vertex="1">
          <mxGeometry x="235" width="235" height="30" as="geometry">
            <mxRectangle width="235" height="30" as="alternateBounds" />
          </mxGeometry>
        </mxCell>
        <mxCell id="I5mWi6wbTLuAv_tSIeip-181" value=" Slave register HC_SR04" style="shape=table;startSize=30;container=1;collapsible=0;childLayout=tableLayout;fixedRows=1;rowLines=0;fontStyle=0;strokeColor=#6c8ebf;fontSize=16;fillColor=#dae8fc;strokeWidth=3;" parent="1" vertex="1">
          <mxGeometry x="-690" y="270" width="470" height="90" as="geometry" />
        </mxCell>
        <mxCell id="I5mWi6wbTLuAv_tSIeip-182" value="" style="shape=tableRow;horizontal=0;startSize=0;swimlaneHead=0;swimlaneBody=0;top=0;left=0;bottom=0;right=0;collapsible=0;dropTarget=0;fillColor=none;points=[[0,0.5],[1,0.5]];portConstraint=eastwest;strokeColor=inherit;fontSize=16;" parent="I5mWi6wbTLuAv_tSIeip-181" vertex="1">
          <mxGeometry y="30" width="470" height="30" as="geometry" />
        </mxCell>
        <mxCell id="I5mWi6wbTLuAv_tSIeip-183" value="0x0" style="shape=partialRectangle;html=1;whiteSpace=wrap;connectable=0;fillColor=none;top=0;left=0;bottom=0;right=0;overflow=hidden;pointerEvents=1;strokeColor=default;fontSize=16;strokeWidth=3;" parent="I5mWi6wbTLuAv_tSIeip-182" vertex="1">
          <mxGeometry width="235" height="30" as="geometry">
            <mxRectangle width="235" height="30" as="alternateBounds" />
          </mxGeometry>
        </mxCell>
        <mxCell id="I5mWi6wbTLuAv_tSIeip-184" value="START" style="shape=partialRectangle;html=1;whiteSpace=wrap;connectable=0;fillColor=none;top=0;left=0;bottom=0;right=0;align=center;spacingLeft=6;overflow=hidden;strokeColor=default;fontSize=16;strokeWidth=3;" parent="I5mWi6wbTLuAv_tSIeip-182" vertex="1">
          <mxGeometry x="235" width="235" height="30" as="geometry">
            <mxRectangle width="235" height="30" as="alternateBounds" />
          </mxGeometry>
        </mxCell>
        <mxCell id="I5mWi6wbTLuAv_tSIeip-185" value="" style="shape=tableRow;horizontal=0;startSize=0;swimlaneHead=0;swimlaneBody=0;top=0;left=0;bottom=0;right=0;collapsible=0;dropTarget=0;fillColor=none;points=[[0,0.5],[1,0.5]];portConstraint=eastwest;strokeColor=inherit;fontSize=16;" parent="I5mWi6wbTLuAv_tSIeip-181" vertex="1">
          <mxGeometry y="60" width="470" height="30" as="geometry" />
        </mxCell>
        <mxCell id="I5mWi6wbTLuAv_tSIeip-186" value="0x4" style="shape=partialRectangle;html=1;whiteSpace=wrap;connectable=0;fillColor=none;top=0;left=0;bottom=0;right=0;overflow=hidden;pointerEvents=1;strokeColor=default;fontSize=16;strokeWidth=3;" parent="I5mWi6wbTLuAv_tSIeip-185" vertex="1">
          <mxGeometry width="235" height="30" as="geometry">
            <mxRectangle width="235" height="30" as="alternateBounds" />
          </mxGeometry>
        </mxCell>
        <mxCell id="I5mWi6wbTLuAv_tSIeip-187" value="DATA_OUT" style="shape=partialRectangle;html=1;whiteSpace=wrap;connectable=0;fillColor=none;top=0;left=0;bottom=0;right=0;align=center;spacingLeft=6;overflow=hidden;strokeColor=default;fontSize=16;strokeWidth=3;" parent="I5mWi6wbTLuAv_tSIeip-185" vertex="1">
          <mxGeometry x="235" width="235" height="30" as="geometry">
            <mxRectangle width="235" height="30" as="alternateBounds" />
          </mxGeometry>
        </mxCell>
        <mxCell id="I5mWi6wbTLuAv_tSIeip-194" value=" Slave register GPIO" style="shape=table;startSize=30;container=1;collapsible=0;childLayout=tableLayout;fixedRows=1;rowLines=0;fontStyle=0;strokeColor=#6c8ebf;fontSize=16;fillColor=#dae8fc;strokeWidth=3;" parent="1" vertex="1">
          <mxGeometry x="-690" y="940" width="470" height="120" as="geometry" />
        </mxCell>
        <mxCell id="I5mWi6wbTLuAv_tSIeip-195" value="" style="shape=tableRow;horizontal=0;startSize=0;swimlaneHead=0;swimlaneBody=0;top=0;left=0;bottom=0;right=0;collapsible=0;dropTarget=0;fillColor=none;points=[[0,0.5],[1,0.5]];portConstraint=eastwest;strokeColor=inherit;fontSize=16;" parent="I5mWi6wbTLuAv_tSIeip-194" vertex="1">
          <mxGeometry y="30" width="470" height="30" as="geometry" />
        </mxCell>
        <mxCell id="I5mWi6wbTLuAv_tSIeip-196" value="0x0" style="shape=partialRectangle;html=1;whiteSpace=wrap;connectable=0;fillColor=none;top=0;left=0;bottom=0;right=0;overflow=hidden;pointerEvents=1;strokeColor=default;fontSize=16;strokeWidth=3;" parent="I5mWi6wbTLuAv_tSIeip-195" vertex="1">
          <mxGeometry width="235" height="30" as="geometry">
            <mxRectangle width="235" height="30" as="alternateBounds" />
          </mxGeometry>
        </mxCell>
        <mxCell id="I5mWi6wbTLuAv_tSIeip-197" value="MODE" style="shape=partialRectangle;html=1;whiteSpace=wrap;connectable=0;fillColor=none;top=0;left=0;bottom=0;right=0;align=center;spacingLeft=6;overflow=hidden;strokeColor=default;fontSize=16;strokeWidth=3;" parent="I5mWi6wbTLuAv_tSIeip-195" vertex="1">
          <mxGeometry x="235" width="235" height="30" as="geometry">
            <mxRectangle width="235" height="30" as="alternateBounds" />
          </mxGeometry>
        </mxCell>
        <mxCell id="I5mWi6wbTLuAv_tSIeip-198" value="" style="shape=tableRow;horizontal=0;startSize=0;swimlaneHead=0;swimlaneBody=0;top=0;left=0;bottom=0;right=0;collapsible=0;dropTarget=0;fillColor=none;points=[[0,0.5],[1,0.5]];portConstraint=eastwest;strokeColor=inherit;fontSize=16;" parent="I5mWi6wbTLuAv_tSIeip-194" vertex="1">
          <mxGeometry y="60" width="470" height="30" as="geometry" />
        </mxCell>
        <mxCell id="I5mWi6wbTLuAv_tSIeip-199" value="0x4" style="shape=partialRectangle;html=1;whiteSpace=wrap;connectable=0;fillColor=none;top=0;left=0;bottom=0;right=0;overflow=hidden;pointerEvents=1;strokeColor=default;fontSize=16;strokeWidth=3;" parent="I5mWi6wbTLuAv_tSIeip-198" vertex="1">
          <mxGeometry width="235" height="30" as="geometry">
            <mxRectangle width="235" height="30" as="alternateBounds" />
          </mxGeometry>
        </mxCell>
        <mxCell id="I5mWi6wbTLuAv_tSIeip-200" value="INDATA" style="shape=partialRectangle;html=1;whiteSpace=wrap;connectable=0;fillColor=none;top=0;left=0;bottom=0;right=0;align=center;spacingLeft=6;overflow=hidden;strokeColor=default;fontSize=16;strokeWidth=3;" parent="I5mWi6wbTLuAv_tSIeip-198" vertex="1">
          <mxGeometry x="235" width="235" height="30" as="geometry">
            <mxRectangle width="235" height="30" as="alternateBounds" />
          </mxGeometry>
        </mxCell>
        <mxCell id="I5mWi6wbTLuAv_tSIeip-201" value="" style="shape=tableRow;horizontal=0;startSize=0;swimlaneHead=0;swimlaneBody=0;top=0;left=0;bottom=0;right=0;collapsible=0;dropTarget=0;fillColor=none;points=[[0,0.5],[1,0.5]];portConstraint=eastwest;strokeColor=inherit;fontSize=16;" parent="I5mWi6wbTLuAv_tSIeip-194" vertex="1">
          <mxGeometry y="90" width="470" height="30" as="geometry" />
        </mxCell>
        <mxCell id="I5mWi6wbTLuAv_tSIeip-202" value="0x8" style="shape=partialRectangle;html=1;whiteSpace=wrap;connectable=0;fillColor=none;top=0;left=0;bottom=0;right=0;overflow=hidden;pointerEvents=1;strokeColor=default;fontSize=16;strokeWidth=3;" parent="I5mWi6wbTLuAv_tSIeip-201" vertex="1">
          <mxGeometry width="235" height="30" as="geometry">
            <mxRectangle width="235" height="30" as="alternateBounds" />
          </mxGeometry>
        </mxCell>
        <mxCell id="I5mWi6wbTLuAv_tSIeip-203" value="OUTDATA" style="shape=partialRectangle;html=1;whiteSpace=wrap;connectable=0;fillColor=none;top=0;left=0;bottom=0;right=0;align=center;spacingLeft=6;overflow=hidden;strokeColor=default;fontSize=16;strokeWidth=3;" parent="I5mWi6wbTLuAv_tSIeip-201" vertex="1">
          <mxGeometry x="235" width="235" height="30" as="geometry">
            <mxRectangle width="235" height="30" as="alternateBounds" />
          </mxGeometry>
        </mxCell>
        <mxCell id="I5mWi6wbTLuAv_tSIeip-204" value=" Slave register FND" style="shape=table;startSize=30;container=1;collapsible=0;childLayout=tableLayout;fixedRows=1;rowLines=0;fontStyle=0;strokeColor=#6c8ebf;fontSize=16;fillColor=#dae8fc;strokeWidth=3;" parent="1" vertex="1">
          <mxGeometry x="-690" y="600" width="470" height="120" as="geometry" />
        </mxCell>
        <mxCell id="I5mWi6wbTLuAv_tSIeip-205" value="" style="shape=tableRow;horizontal=0;startSize=0;swimlaneHead=0;swimlaneBody=0;top=0;left=0;bottom=0;right=0;collapsible=0;dropTarget=0;fillColor=none;points=[[0,0.5],[1,0.5]];portConstraint=eastwest;strokeColor=inherit;fontSize=16;" parent="I5mWi6wbTLuAv_tSIeip-204" vertex="1">
          <mxGeometry y="30" width="470" height="30" as="geometry" />
        </mxCell>
        <mxCell id="I5mWi6wbTLuAv_tSIeip-206" value="0x0" style="shape=partialRectangle;html=1;whiteSpace=wrap;connectable=0;fillColor=none;top=0;left=0;bottom=0;right=0;overflow=hidden;pointerEvents=1;strokeColor=default;fontSize=16;strokeWidth=3;" parent="I5mWi6wbTLuAv_tSIeip-205" vertex="1">
          <mxGeometry width="235" height="30" as="geometry">
            <mxRectangle width="235" height="30" as="alternateBounds" />
          </mxGeometry>
        </mxCell>
        <mxCell id="I5mWi6wbTLuAv_tSIeip-207" value="FCR" style="shape=partialRectangle;html=1;whiteSpace=wrap;connectable=0;fillColor=none;top=0;left=0;bottom=0;right=0;align=center;spacingLeft=6;overflow=hidden;strokeColor=default;fontSize=16;strokeWidth=3;" parent="I5mWi6wbTLuAv_tSIeip-205" vertex="1">
          <mxGeometry x="235" width="235" height="30" as="geometry">
            <mxRectangle width="235" height="30" as="alternateBounds" />
          </mxGeometry>
        </mxCell>
        <mxCell id="I5mWi6wbTLuAv_tSIeip-208" value="" style="shape=tableRow;horizontal=0;startSize=0;swimlaneHead=0;swimlaneBody=0;top=0;left=0;bottom=0;right=0;collapsible=0;dropTarget=0;fillColor=none;points=[[0,0.5],[1,0.5]];portConstraint=eastwest;strokeColor=inherit;fontSize=16;" parent="I5mWi6wbTLuAv_tSIeip-204" vertex="1">
          <mxGeometry y="60" width="470" height="30" as="geometry" />
        </mxCell>
        <mxCell id="I5mWi6wbTLuAv_tSIeip-209" value="0x4" style="shape=partialRectangle;html=1;whiteSpace=wrap;connectable=0;fillColor=none;top=0;left=0;bottom=0;right=0;overflow=hidden;pointerEvents=1;strokeColor=default;fontSize=16;strokeWidth=3;" parent="I5mWi6wbTLuAv_tSIeip-208" vertex="1">
          <mxGeometry width="235" height="30" as="geometry">
            <mxRectangle width="235" height="30" as="alternateBounds" />
          </mxGeometry>
        </mxCell>
        <mxCell id="I5mWi6wbTLuAv_tSIeip-210" value="FDR" style="shape=partialRectangle;html=1;whiteSpace=wrap;connectable=0;fillColor=none;top=0;left=0;bottom=0;right=0;align=center;spacingLeft=6;overflow=hidden;strokeColor=default;fontSize=16;strokeWidth=3;" parent="I5mWi6wbTLuAv_tSIeip-208" vertex="1">
          <mxGeometry x="235" width="235" height="30" as="geometry">
            <mxRectangle width="235" height="30" as="alternateBounds" />
          </mxGeometry>
        </mxCell>
        <mxCell id="I5mWi6wbTLuAv_tSIeip-211" value="" style="shape=tableRow;horizontal=0;startSize=0;swimlaneHead=0;swimlaneBody=0;top=0;left=0;bottom=0;right=0;collapsible=0;dropTarget=0;fillColor=none;points=[[0,0.5],[1,0.5]];portConstraint=eastwest;strokeColor=inherit;fontSize=16;" parent="I5mWi6wbTLuAv_tSIeip-204" vertex="1">
          <mxGeometry y="90" width="470" height="30" as="geometry" />
        </mxCell>
        <mxCell id="I5mWi6wbTLuAv_tSIeip-212" value="0x8" style="shape=partialRectangle;html=1;whiteSpace=wrap;connectable=0;fillColor=none;top=0;left=0;bottom=0;right=0;overflow=hidden;pointerEvents=1;strokeColor=default;fontSize=16;strokeWidth=3;" parent="I5mWi6wbTLuAv_tSIeip-211" vertex="1">
          <mxGeometry width="235" height="30" as="geometry">
            <mxRectangle width="235" height="30" as="alternateBounds" />
          </mxGeometry>
        </mxCell>
        <mxCell id="I5mWi6wbTLuAv_tSIeip-213" value="FPR" style="shape=partialRectangle;html=1;whiteSpace=wrap;connectable=0;fillColor=none;top=0;left=0;bottom=0;right=0;align=center;spacingLeft=6;overflow=hidden;strokeColor=default;fontSize=16;strokeWidth=3;" parent="I5mWi6wbTLuAv_tSIeip-211" vertex="1">
          <mxGeometry x="235" width="235" height="30" as="geometry">
            <mxRectangle width="235" height="30" as="alternateBounds" />
          </mxGeometry>
        </mxCell>
        <mxCell id="3vbZaFCxg4m8OFzueqiP-1" value=" Slave register DHT11" style="shape=table;startSize=30;container=1;collapsible=0;childLayout=tableLayout;fixedRows=1;rowLines=0;fontStyle=0;strokeColor=#6c8ebf;fontSize=16;fillColor=#dae8fc;strokeWidth=3;" vertex="1" parent="1">
          <mxGeometry x="-250" y="2480" width="330" height="120" as="geometry" />
        </mxCell>
        <mxCell id="3vbZaFCxg4m8OFzueqiP-2" value="" style="shape=tableRow;horizontal=0;startSize=0;swimlaneHead=0;swimlaneBody=0;top=0;left=0;bottom=0;right=0;collapsible=0;dropTarget=0;fillColor=none;points=[[0,0.5],[1,0.5]];portConstraint=eastwest;strokeColor=inherit;fontSize=16;" vertex="1" parent="3vbZaFCxg4m8OFzueqiP-1">
          <mxGeometry y="30" width="330" height="30" as="geometry" />
        </mxCell>
        <mxCell id="3vbZaFCxg4m8OFzueqiP-3" value="0x0" style="shape=partialRectangle;html=1;whiteSpace=wrap;connectable=0;fillColor=none;top=0;left=0;bottom=0;right=0;overflow=hidden;pointerEvents=1;strokeColor=default;fontSize=16;strokeWidth=3;" vertex="1" parent="3vbZaFCxg4m8OFzueqiP-2">
          <mxGeometry width="165" height="30" as="geometry">
            <mxRectangle width="165" height="30" as="alternateBounds" />
          </mxGeometry>
        </mxCell>
        <mxCell id="3vbZaFCxg4m8OFzueqiP-4" value="START" style="shape=partialRectangle;html=1;whiteSpace=wrap;connectable=0;fillColor=none;top=0;left=0;bottom=0;right=0;align=center;spacingLeft=6;overflow=hidden;strokeColor=default;fontSize=16;strokeWidth=3;" vertex="1" parent="3vbZaFCxg4m8OFzueqiP-2">
          <mxGeometry x="165" width="165" height="30" as="geometry">
            <mxRectangle width="165" height="30" as="alternateBounds" />
          </mxGeometry>
        </mxCell>
        <mxCell id="3vbZaFCxg4m8OFzueqiP-5" value="" style="shape=tableRow;horizontal=0;startSize=0;swimlaneHead=0;swimlaneBody=0;top=0;left=0;bottom=0;right=0;collapsible=0;dropTarget=0;fillColor=none;points=[[0,0.5],[1,0.5]];portConstraint=eastwest;strokeColor=inherit;fontSize=16;" vertex="1" parent="3vbZaFCxg4m8OFzueqiP-1">
          <mxGeometry y="60" width="330" height="30" as="geometry" />
        </mxCell>
        <mxCell id="3vbZaFCxg4m8OFzueqiP-6" value="0x4" style="shape=partialRectangle;html=1;whiteSpace=wrap;connectable=0;fillColor=none;top=0;left=0;bottom=0;right=0;overflow=hidden;pointerEvents=1;strokeColor=default;fontSize=16;strokeWidth=3;" vertex="1" parent="3vbZaFCxg4m8OFzueqiP-5">
          <mxGeometry width="165" height="30" as="geometry">
            <mxRectangle width="165" height="30" as="alternateBounds" />
          </mxGeometry>
        </mxCell>
        <mxCell id="3vbZaFCxg4m8OFzueqiP-7" value="ODATA" style="shape=partialRectangle;html=1;whiteSpace=wrap;connectable=0;fillColor=none;top=0;left=0;bottom=0;right=0;align=center;spacingLeft=6;overflow=hidden;strokeColor=default;fontSize=16;strokeWidth=3;" vertex="1" parent="3vbZaFCxg4m8OFzueqiP-5">
          <mxGeometry x="165" width="165" height="30" as="geometry">
            <mxRectangle width="165" height="30" as="alternateBounds" />
          </mxGeometry>
        </mxCell>
        <mxCell id="3vbZaFCxg4m8OFzueqiP-8" value="" style="shape=tableRow;horizontal=0;startSize=0;swimlaneHead=0;swimlaneBody=0;top=0;left=0;bottom=0;right=0;collapsible=0;dropTarget=0;fillColor=none;points=[[0,0.5],[1,0.5]];portConstraint=eastwest;strokeColor=inherit;fontSize=16;" vertex="1" parent="3vbZaFCxg4m8OFzueqiP-1">
          <mxGeometry y="90" width="330" height="30" as="geometry" />
        </mxCell>
        <mxCell id="3vbZaFCxg4m8OFzueqiP-9" value="0x8" style="shape=partialRectangle;html=1;whiteSpace=wrap;connectable=0;fillColor=none;top=0;left=0;bottom=0;right=0;overflow=hidden;pointerEvents=1;strokeColor=default;fontSize=16;strokeWidth=3;" vertex="1" parent="3vbZaFCxg4m8OFzueqiP-8">
          <mxGeometry width="165" height="30" as="geometry">
            <mxRectangle width="165" height="30" as="alternateBounds" />
          </mxGeometry>
        </mxCell>
        <mxCell id="3vbZaFCxg4m8OFzueqiP-10" value="CHEKSUM" style="shape=partialRectangle;html=1;whiteSpace=wrap;connectable=0;fillColor=none;top=0;left=0;bottom=0;right=0;align=center;spacingLeft=6;overflow=hidden;strokeColor=default;fontSize=16;strokeWidth=3;" vertex="1" parent="3vbZaFCxg4m8OFzueqiP-8">
          <mxGeometry x="165" width="165" height="30" as="geometry">
            <mxRectangle width="165" height="30" as="alternateBounds" />
          </mxGeometry>
        </mxCell>
        <mxCell id="3vbZaFCxg4m8OFzueqiP-11" style="edgeStyle=orthogonalEdgeStyle;rounded=0;orthogonalLoop=1;jettySize=auto;html=1;strokeWidth=2;fillColor=#fff2cc;strokeColor=#d6b656;" edge="1" parent="1" target="I5mWi6wbTLuAv_tSIeip-120">
          <mxGeometry relative="1" as="geometry">
            <mxPoint x="-250" y="2585" as="sourcePoint" />
            <mxPoint x="-370" y="2600" as="targetPoint" />
            <Array as="points">
              <mxPoint x="-250" y="2586" />
              <mxPoint x="-310" y="2586" />
              <mxPoint x="-310" y="2575" />
            </Array>
          </mxGeometry>
        </mxCell>
      </root>
    </mxGraphModel>
  </diagram>
</mxfile>
